<svg width="50" height="48" viewBox="0 0 50 48" fill="none" xmlns="http://www.w3.org/2000/svg">
<path d="M24.7732 45.5C12.5311 45.5 2.58057 35.86 2.58057 24C2.58057 12.14 12.5311 2.5 24.7732 2.5C37.0153 2.5 46.9659 12.14 46.9659 24C46.9659 35.86 37.0153 45.5 24.7732 45.5Z" fill="white"/>
<path d="M27.3746 32.5601C26.9823 32.5601 26.5901 32.4201 26.2804 32.1201L18.993 25.0601C18.3943 24.4801 18.3943 23.5201 18.993 22.9401L26.2804 15.8801C26.8791 15.3001 27.87 15.3001 28.4687 15.8801C29.0674 16.4601 29.0674 17.4201 28.4687 18.0001L22.2754 24.0001L28.4687 30.0001C29.0674 30.5801 29.0674 31.5401 28.4687 32.1201C28.1797 32.4201 27.7874 32.5601 27.3746 32.5601Z" fill="#292D32"/>
</svg>
