<svg width="615" height="174" viewBox="0 0 615 174" fill="none" xmlns="http://www.w3.org/2000/svg">
<rect width="615" height="174" fill="#F8F8F8"/>
<path d="M32.192 159H34.656L36.608 151.736L38.4 156.472H38.464L42.848 151.688L40.896 159H43.392L46.4 147.8H43.552L39.376 152.536L37.76 147.8H35.2L32.192 159ZM48.4986 159.16C49.0106 159.16 49.48 159.064 49.9066 158.872C50.3333 158.669 50.7173 158.381 51.0586 158.008L50.8026 159H53.1546L54.4186 154.264C54.472 154.051 54.5146 153.837 54.5466 153.624C54.5893 153.411 54.6106 153.192 54.6106 152.968C54.6106 152.125 54.3226 151.475 53.7466 151.016C53.1706 150.557 52.3013 150.328 51.1386 150.328C50.5306 150.328 49.96 150.387 49.4266 150.504C48.8933 150.611 48.4026 150.755 47.9546 150.936L48.3386 152.856C48.648 152.728 49 152.621 49.3946 152.536C49.8 152.44 50.2106 152.392 50.6266 152.392C51.2346 152.392 51.656 152.488 51.8906 152.68C52.1253 152.861 52.2426 153.101 52.2426 153.4C52.2426 153.528 52.232 153.645 52.2106 153.752C52.1893 153.848 52.168 153.944 52.1466 154.04L52.1146 154.152C51.752 154.035 51.3733 153.944 50.9786 153.88C50.5946 153.805 50.168 153.768 49.6986 153.768C49.176 153.768 48.6906 153.837 48.2426 153.976C47.7946 154.104 47.4053 154.301 47.0746 154.568C46.744 154.835 46.4826 155.16 46.2906 155.544C46.0986 155.928 46.0026 156.365 46.0026 156.856C46.0026 157.197 46.0613 157.507 46.1786 157.784C46.3066 158.061 46.4773 158.307 46.6906 158.52C46.9146 158.723 47.176 158.883 47.4746 159C47.784 159.107 48.1253 159.16 48.4986 159.16ZM49.5386 157.496C49.1973 157.496 48.9253 157.411 48.7226 157.24C48.52 157.069 48.4186 156.851 48.4186 156.584C48.4186 156.168 48.5786 155.843 48.8986 155.608C49.2293 155.363 49.6506 155.24 50.1626 155.24C50.4613 155.24 50.7493 155.272 51.0266 155.336C51.304 155.389 51.5493 155.459 51.7626 155.544L51.6986 155.768C51.6346 156.003 51.5333 156.227 51.3946 156.44C51.256 156.643 51.0906 156.824 50.8986 156.984C50.7066 157.144 50.4933 157.272 50.2586 157.368C50.0346 157.453 49.7946 157.496 49.5386 157.496ZM55.2489 159H57.6809L58.4969 155.96C58.7955 154.84 59.2435 154.035 59.8409 153.544C60.4382 153.053 61.1422 152.808 61.9529 152.808H62.0809L62.7689 150.264C62.0649 150.211 61.4515 150.355 60.9289 150.696C60.4169 151.027 59.9422 151.512 59.5049 152.152L59.9689 150.424H57.5369L55.2489 159ZM61.952 159H64.384L65.088 156.36L66.32 155.368L67.536 159H70.256L68.384 153.768L72.528 150.424H69.36L65.888 153.368L67.52 147.32H65.088L61.952 159ZM74.3971 155.56H80.2691C80.4078 155.229 80.5145 154.899 80.5891 154.568C80.6638 154.237 80.7011 153.917 80.7011 153.608C80.7011 153.128 80.6211 152.685 80.4611 152.28C80.3118 151.875 80.0878 151.523 79.7891 151.224C79.4905 150.925 79.1225 150.691 78.6851 150.52C78.2478 150.349 77.7518 150.264 77.1971 150.264C76.4291 150.264 75.7305 150.413 75.1011 150.712C74.4825 151.011 73.9491 151.405 73.5011 151.896C73.0531 152.376 72.7065 152.925 72.4611 153.544C72.2265 154.152 72.1091 154.765 72.1091 155.384C72.1091 155.981 72.1998 156.515 72.3811 156.984C72.5625 157.453 72.8238 157.853 73.1651 158.184C73.5065 158.504 73.9225 158.755 74.4131 158.936C74.9038 159.107 75.4585 159.192 76.0771 159.192C76.8131 159.192 77.4478 159.085 77.9811 158.872C78.5251 158.648 78.9891 158.376 79.3731 158.056L78.2531 156.552C77.9011 156.797 77.5758 156.973 77.2771 157.08C76.9785 157.187 76.6691 157.24 76.3491 157.24C75.7091 157.24 75.2345 157.091 74.9251 156.792C74.6158 156.483 74.4398 156.072 74.3971 155.56ZM74.6051 154.04C74.8078 153.496 75.1171 153.059 75.5331 152.728C75.9598 152.387 76.4505 152.216 77.0051 152.216C77.5065 152.216 77.8638 152.339 78.0771 152.584C78.3011 152.829 78.4131 153.128 78.4131 153.48C78.4131 153.672 78.3865 153.859 78.3331 154.04H74.6051ZM84.2439 159.144C84.9159 159.144 85.5025 159.027 86.0039 158.792L86.5639 156.728C86.3612 156.813 86.1479 156.883 85.9239 156.936C85.7105 156.979 85.5079 157 85.3159 157C84.8785 157 84.6599 156.829 84.6599 156.488C84.6599 156.435 84.6652 156.376 84.6759 156.312C84.6865 156.237 84.7025 156.168 84.7239 156.104L85.6839 152.504H87.6999L88.2599 150.424H86.2439L86.8359 148.232H84.4039L83.8119 150.424H82.7879L82.2279 152.504H83.2519L82.2119 156.392C82.1585 156.584 82.1159 156.765 82.0839 156.936C82.0625 157.107 82.0519 157.283 82.0519 157.464C82.0519 157.944 82.2332 158.344 82.5959 158.664C82.9585 158.984 83.5079 159.144 84.2439 159.144ZM98.0974 159.176C98.9294 159.176 99.6547 159.064 100.273 158.84C100.903 158.605 101.447 158.259 101.905 157.8C102.673 157.032 103.249 155.923 103.633 154.472L105.425 147.8H102.961L101.265 154.12C101.031 155.016 100.668 155.709 100.177 156.2C99.6867 156.669 99.0787 156.904 98.3534 156.904C97.7134 156.904 97.228 156.733 96.8974 156.392C96.5667 156.051 96.4014 155.603 96.4014 155.048C96.4014 154.813 96.4174 154.6 96.4494 154.408C96.4814 154.216 96.524 154.024 96.5774 153.832L98.1934 147.8H95.7294L94.1774 153.608C94.092 153.917 94.0227 154.227 93.9694 154.536C93.9267 154.835 93.9054 155.123 93.9054 155.4C93.9054 155.997 94.0014 156.531 94.1934 157C94.3854 157.469 94.6627 157.864 95.0254 158.184C95.388 158.504 95.8254 158.749 96.3374 158.92C96.86 159.091 97.4467 159.176 98.0974 159.176ZM104.092 161.56H106.524L107.532 157.752C107.809 158.179 108.156 158.52 108.572 158.776C108.999 159.032 109.548 159.16 110.22 159.16C110.828 159.16 111.415 159.032 111.98 158.776C112.545 158.52 113.047 158.163 113.484 157.704C113.932 157.235 114.289 156.68 114.556 156.04C114.823 155.4 114.956 154.701 114.956 153.944C114.956 153.368 114.871 152.851 114.7 152.392C114.54 151.933 114.311 151.549 114.012 151.24C113.713 150.92 113.361 150.68 112.956 150.52C112.561 150.349 112.129 150.264 111.66 150.264C111.18 150.264 110.748 150.36 110.364 150.552C109.991 150.744 109.617 151.011 109.244 151.352L109.5 150.424H107.068L104.092 161.56ZM109.9 157.112C109.356 157.112 108.913 156.947 108.572 156.616C108.231 156.275 108.06 155.832 108.06 155.288C108.06 154.883 108.129 154.499 108.268 154.136C108.417 153.773 108.609 153.459 108.844 153.192C109.089 152.915 109.367 152.701 109.676 152.552C109.985 152.392 110.311 152.312 110.652 152.312C111.196 152.312 111.628 152.472 111.948 152.792C112.279 153.101 112.444 153.539 112.444 154.104C112.444 154.541 112.369 154.941 112.22 155.304C112.081 155.667 111.895 155.987 111.66 156.264C111.425 156.531 111.153 156.739 110.844 156.888C110.545 157.037 110.231 157.112 109.9 157.112ZM119.545 159.16C120.025 159.16 120.452 159.064 120.825 158.872C121.209 158.68 121.588 158.413 121.961 158.072L121.705 159H124.137L127.257 147.32H124.825L123.673 151.672C123.396 151.245 123.044 150.904 122.617 150.648C122.201 150.392 121.657 150.264 120.985 150.264C120.377 150.264 119.791 150.392 119.225 150.648C118.66 150.904 118.153 151.267 117.705 151.736C117.268 152.195 116.916 152.744 116.649 153.384C116.383 154.024 116.249 154.723 116.249 155.48C116.249 156.056 116.329 156.573 116.489 157.032C116.66 157.491 116.895 157.88 117.193 158.2C117.492 158.509 117.839 158.749 118.233 158.92C118.639 159.08 119.076 159.16 119.545 159.16ZM120.553 157.112C120.009 157.112 119.572 156.957 119.241 156.648C118.921 156.328 118.761 155.885 118.761 155.32C118.761 154.893 118.831 154.499 118.969 154.136C119.119 153.763 119.311 153.443 119.545 153.176C119.78 152.899 120.047 152.685 120.345 152.536C120.655 152.387 120.975 152.312 121.305 152.312C121.849 152.312 122.292 152.483 122.633 152.824C122.975 153.155 123.145 153.592 123.145 154.136C123.145 154.541 123.071 154.925 122.921 155.288C122.783 155.651 122.591 155.971 122.345 156.248C122.111 156.515 121.833 156.728 121.513 156.888C121.204 157.037 120.884 157.112 120.553 157.112ZM128.999 159.16C129.511 159.16 129.98 159.064 130.407 158.872C130.833 158.669 131.217 158.381 131.559 158.008L131.303 159H133.655L134.919 154.264C134.972 154.051 135.015 153.837 135.047 153.624C135.089 153.411 135.111 153.192 135.111 152.968C135.111 152.125 134.823 151.475 134.247 151.016C133.671 150.557 132.801 150.328 131.639 150.328C131.031 150.328 130.46 150.387 129.927 150.504C129.393 150.611 128.903 150.755 128.455 150.936L128.839 152.856C129.148 152.728 129.5 152.621 129.895 152.536C130.3 152.44 130.711 152.392 131.127 152.392C131.735 152.392 132.156 152.488 132.391 152.68C132.625 152.861 132.743 153.101 132.743 153.4C132.743 153.528 132.732 153.645 132.711 153.752C132.689 153.848 132.668 153.944 132.647 154.04L132.615 154.152C132.252 154.035 131.873 153.944 131.479 153.88C131.095 153.805 130.668 153.768 130.199 153.768C129.676 153.768 129.191 153.837 128.743 153.976C128.295 154.104 127.905 154.301 127.575 154.568C127.244 154.835 126.983 155.16 126.791 155.544C126.599 155.928 126.503 156.365 126.503 156.856C126.503 157.197 126.561 157.507 126.679 157.784C126.807 158.061 126.977 158.307 127.191 158.52C127.415 158.723 127.676 158.883 127.975 159C128.284 159.107 128.625 159.16 128.999 159.16ZM130.039 157.496C129.697 157.496 129.425 157.411 129.223 157.24C129.02 157.069 128.919 156.851 128.919 156.584C128.919 156.168 129.079 155.843 129.399 155.608C129.729 155.363 130.151 155.24 130.663 155.24C130.961 155.24 131.249 155.272 131.527 155.336C131.804 155.389 132.049 155.459 132.263 155.544L132.199 155.768C132.135 156.003 132.033 156.227 131.895 156.44C131.756 156.643 131.591 156.824 131.399 156.984C131.207 157.144 130.993 157.272 130.759 157.368C130.535 157.453 130.295 157.496 130.039 157.496ZM138.869 159.144C139.541 159.144 140.128 159.027 140.629 158.792L141.189 156.728C140.986 156.813 140.773 156.883 140.549 156.936C140.336 156.979 140.133 157 139.941 157C139.504 157 139.285 156.829 139.285 156.488C139.285 156.435 139.29 156.376 139.301 156.312C139.312 156.237 139.328 156.168 139.349 156.104L140.309 152.504H142.325L142.885 150.424H140.869L141.461 148.232H139.029L138.437 150.424H137.413L136.853 152.504H137.877L136.837 156.392C136.784 156.584 136.741 156.765 136.709 156.936C136.688 157.107 136.677 157.283 136.677 157.464C136.677 157.944 136.858 158.344 137.221 158.664C137.584 158.984 138.133 159.144 138.869 159.144ZM145.382 155.56H151.253C151.392 155.229 151.499 154.899 151.574 154.568C151.648 154.237 151.686 153.917 151.686 153.608C151.686 153.128 151.606 152.685 151.446 152.28C151.296 151.875 151.072 151.523 150.774 151.224C150.475 150.925 150.107 150.691 149.67 150.52C149.232 150.349 148.736 150.264 148.182 150.264C147.414 150.264 146.715 150.413 146.086 150.712C145.467 151.011 144.934 151.405 144.486 151.896C144.038 152.376 143.691 152.925 143.446 153.544C143.211 154.152 143.094 154.765 143.094 155.384C143.094 155.981 143.184 156.515 143.366 156.984C143.547 157.453 143.808 157.853 144.15 158.184C144.491 158.504 144.907 158.755 145.398 158.936C145.888 159.107 146.443 159.192 147.062 159.192C147.798 159.192 148.432 159.085 148.966 158.872C149.51 158.648 149.974 158.376 150.358 158.056L149.238 156.552C148.886 156.797 148.56 156.973 148.262 157.08C147.963 157.187 147.654 157.24 147.334 157.24C146.694 157.24 146.219 157.091 145.91 156.792C145.6 156.483 145.424 156.072 145.382 155.56ZM145.59 154.04C145.792 153.496 146.102 153.059 146.518 152.728C146.944 152.387 147.435 152.216 147.99 152.216C148.491 152.216 148.848 152.339 149.062 152.584C149.286 152.829 149.398 153.128 149.398 153.48C149.398 153.672 149.371 153.859 149.318 154.04H145.59ZM155.628 159.192C156.14 159.192 156.61 159.123 157.036 158.984C157.474 158.845 157.847 158.648 158.156 158.392C158.466 158.125 158.706 157.805 158.876 157.432C159.058 157.059 159.148 156.637 159.148 156.168C159.148 155.837 159.079 155.549 158.94 155.304C158.802 155.048 158.62 154.824 158.396 154.632C158.172 154.44 157.916 154.275 157.628 154.136C157.351 153.997 157.074 153.864 156.796 153.736C156.434 153.576 156.151 153.432 155.948 153.304C155.756 153.165 155.66 153.011 155.66 152.84C155.66 152.616 155.74 152.44 155.9 152.312C156.071 152.184 156.306 152.12 156.604 152.12C156.956 152.12 157.314 152.189 157.676 152.328C158.039 152.467 158.428 152.701 158.844 153.032L160.156 151.496C159.975 151.336 159.762 151.187 159.516 151.048C159.282 150.899 159.015 150.765 158.716 150.648C158.428 150.531 158.119 150.44 157.788 150.376C157.468 150.301 157.132 150.264 156.78 150.264C156.247 150.264 155.767 150.344 155.34 150.504C154.914 150.653 154.551 150.861 154.252 151.128C153.964 151.395 153.74 151.715 153.58 152.088C153.42 152.451 153.34 152.845 153.34 153.272C153.34 153.613 153.404 153.912 153.532 154.168C153.671 154.413 153.852 154.632 154.076 154.824C154.311 155.016 154.578 155.192 154.876 155.352C155.175 155.501 155.495 155.645 155.836 155.784C156.135 155.912 156.375 156.04 156.556 156.168C156.738 156.285 156.828 156.424 156.828 156.584C156.828 156.829 156.738 157.016 156.556 157.144C156.375 157.272 156.124 157.336 155.804 157.336C155.42 157.336 154.999 157.256 154.54 157.096C154.082 156.936 153.628 156.632 153.18 156.184L151.772 157.64C152.028 157.907 152.311 158.136 152.62 158.328C152.93 158.52 153.25 158.68 153.58 158.808C153.922 158.936 154.268 159.032 154.62 159.096C154.972 159.16 155.308 159.192 155.628 159.192Z" fill="#CD4147"/>
<rect width="615" height="63" fill="#364384"/>
<path d="M411.912 24.72H410.728L405.624 36H406.92L408.248 33.04H414.344L415.656 36H417.016L411.912 24.72ZM413.848 31.904H408.744L411.304 26.192L413.848 31.904ZM420.196 28.816H422.82V27.728H420.196V25.232H418.964V27.728H417.812V28.816H418.964V33.808C418.964 34.224 419.023 34.5813 419.14 34.88C419.258 35.1787 419.418 35.424 419.62 35.616C419.834 35.7973 420.084 35.9307 420.372 36.016C420.66 36.1013 420.97 36.144 421.3 36.144C421.599 36.144 421.866 36.112 422.1 36.048C422.346 35.9947 422.575 35.9093 422.788 35.792V34.736C422.575 34.8427 422.372 34.9173 422.18 34.96C421.999 35.0027 421.802 35.024 421.588 35.024C421.172 35.024 420.836 34.9227 420.58 34.72C420.324 34.5173 420.196 34.16 420.196 33.648V28.816ZM436.902 34.592L436.118 33.856C435.787 34.208 435.414 34.5013 434.998 34.736C434.593 34.9707 434.123 35.088 433.59 35.088C433.153 35.088 432.747 35.008 432.374 34.848C432.011 34.6773 431.691 34.448 431.414 34.16C431.147 33.8613 430.934 33.5147 430.774 33.12C430.625 32.7253 430.55 32.304 430.55 31.856C430.55 31.408 430.625 30.992 430.774 30.608C430.923 30.2133 431.131 29.872 431.398 29.584C431.665 29.2853 431.979 29.056 432.342 28.896C432.705 28.7253 433.094 28.64 433.51 28.64C434.075 28.64 434.55 28.7627 434.934 29.008C435.329 29.2533 435.691 29.5467 436.022 29.888L436.838 29.024C436.646 28.8213 436.438 28.6293 436.214 28.448C435.99 28.2667 435.745 28.112 435.478 27.984C435.211 27.8453 434.918 27.7387 434.598 27.664C434.278 27.5893 433.921 27.552 433.526 27.552C432.918 27.552 432.353 27.6693 431.83 27.904C431.318 28.128 430.87 28.4373 430.486 28.832C430.113 29.2267 429.819 29.6907 429.606 30.224C429.393 30.7467 429.286 31.3013 429.286 31.888C429.286 32.4747 429.393 33.0293 429.606 33.552C429.819 34.0747 430.113 34.5333 430.486 34.928C430.87 35.312 431.318 35.6213 431.83 35.856C432.353 36.08 432.918 36.192 433.526 36.192C434.305 36.192 434.955 36.0427 435.478 35.744C436.011 35.4453 436.486 35.0613 436.902 34.592ZM440.283 36V24.32H439.051V36H440.283ZM451.254 31.856C451.254 31.2693 451.147 30.7147 450.934 30.192C450.72 29.6693 450.422 29.216 450.038 28.832C449.654 28.4373 449.195 28.128 448.662 27.904C448.139 27.6693 447.568 27.552 446.95 27.552C446.32 27.552 445.739 27.6693 445.206 27.904C444.683 28.128 444.23 28.4373 443.846 28.832C443.462 29.2267 443.163 29.6907 442.95 30.224C442.736 30.7467 442.63 31.3013 442.63 31.888C442.63 32.4747 442.736 33.0293 442.95 33.552C443.163 34.0747 443.462 34.5333 443.846 34.928C444.23 35.312 444.683 35.6213 445.206 35.856C445.728 36.08 446.299 36.192 446.918 36.192C447.536 36.192 448.112 36.08 448.646 35.856C449.179 35.6213 449.638 35.3067 450.022 34.912C450.406 34.5173 450.704 34.0587 450.918 33.536C451.142 33.0027 451.254 32.4427 451.254 31.856ZM449.99 31.888C449.99 32.336 449.915 32.7573 449.766 33.152C449.616 33.536 449.408 33.872 449.142 34.16C448.875 34.448 448.555 34.6773 448.182 34.848C447.808 35.008 447.398 35.088 446.95 35.088C446.512 35.088 446.107 35.0027 445.734 34.832C445.36 34.6613 445.035 34.432 444.758 34.144C444.491 33.856 444.278 33.5147 444.118 33.12C443.968 32.7253 443.894 32.304 443.894 31.856C443.894 31.408 443.968 30.992 444.118 30.608C444.267 30.2133 444.47 29.872 444.726 29.584C444.992 29.2853 445.312 29.056 445.686 28.896C446.059 28.7253 446.47 28.64 446.918 28.64C447.355 28.64 447.76 28.7253 448.134 28.896C448.507 29.0667 448.832 29.3013 449.11 29.6C449.387 29.888 449.6 30.2293 449.75 30.624C449.91 31.0187 449.99 31.44 449.99 31.888ZM459.165 33.68V33.648C459.165 33.2747 459.085 32.96 458.925 32.704C458.776 32.448 458.573 32.2293 458.317 32.048C458.061 31.8667 457.773 31.7173 457.453 31.6C457.144 31.4827 456.829 31.376 456.509 31.28C456.232 31.1947 455.965 31.1093 455.709 31.024C455.453 30.9387 455.224 30.8427 455.021 30.736C454.829 30.6293 454.675 30.5067 454.557 30.368C454.44 30.2187 454.381 30.048 454.381 29.856V29.824C454.381 29.4827 454.525 29.2 454.813 28.976C455.101 28.7413 455.491 28.624 455.981 28.624C456.387 28.624 456.797 28.6987 457.213 28.848C457.64 28.9867 458.045 29.1787 458.429 29.424L458.989 28.496C458.563 28.2187 458.088 28 457.565 27.84C457.043 27.6693 456.525 27.584 456.013 27.584C455.608 27.584 455.229 27.6427 454.877 27.76C454.536 27.8667 454.237 28.0267 453.981 28.24C453.736 28.4427 453.544 28.6933 453.405 28.992C453.267 29.28 453.197 29.6 453.197 29.952V29.984C453.197 30.368 453.277 30.688 453.437 30.944C453.608 31.2 453.821 31.4133 454.077 31.584C454.344 31.7547 454.637 31.8987 454.957 32.016C455.288 32.1227 455.613 32.224 455.933 32.32C456.2 32.3947 456.456 32.4747 456.701 32.56C456.957 32.6453 457.181 32.7467 457.373 32.864C457.565 32.9707 457.715 33.0987 457.821 33.248C457.939 33.3973 457.997 33.5733 457.997 33.776V33.808C457.997 34.2133 457.837 34.5333 457.517 34.768C457.197 35.0027 456.787 35.12 456.285 35.12C455.795 35.12 455.304 35.0293 454.813 34.848C454.333 34.6667 453.869 34.4053 453.421 34.064L452.797 34.944C453.267 35.3173 453.805 35.616 454.413 35.84C455.021 36.0533 455.624 36.16 456.221 36.16C456.637 36.16 457.021 36.1067 457.373 36C457.736 35.8827 458.045 35.7173 458.301 35.504C458.568 35.2907 458.776 35.0347 458.925 34.736C459.085 34.4267 459.165 34.0747 459.165 33.68ZM462.19 32.32H468.75C468.761 32.2453 468.766 32.176 468.766 32.112C468.766 32.048 468.766 31.9893 468.766 31.936C468.766 31.328 468.681 30.7573 468.51 30.224C468.339 29.6907 468.089 29.2267 467.758 28.832C467.427 28.4373 467.022 28.128 466.542 27.904C466.062 27.6693 465.518 27.552 464.91 27.552C464.334 27.552 463.801 27.664 463.31 27.888C462.83 28.112 462.414 28.4213 462.062 28.816C461.71 29.2 461.433 29.6587 461.23 30.192C461.038 30.7147 460.942 31.2747 460.942 31.872C460.942 32.512 461.049 33.0987 461.262 33.632C461.486 34.1653 461.785 34.624 462.158 35.008C462.531 35.3813 462.969 35.6747 463.47 35.888C463.971 36.0907 464.505 36.192 465.07 36.192C465.859 36.192 466.521 36.0533 467.054 35.776C467.587 35.488 468.062 35.1093 468.478 34.64L467.71 33.952C467.369 34.304 466.99 34.5867 466.574 34.8C466.169 35.0133 465.678 35.12 465.102 35.12C464.739 35.12 464.393 35.0613 464.062 34.944C463.731 34.816 463.433 34.6347 463.166 34.4C462.899 34.1547 462.681 33.8613 462.51 33.52C462.339 33.168 462.233 32.768 462.19 32.32ZM462.19 31.408C462.233 31.0027 462.329 30.6293 462.478 30.288C462.627 29.9467 462.819 29.6533 463.054 29.408C463.289 29.152 463.561 28.9547 463.87 28.816C464.179 28.6667 464.515 28.592 464.878 28.592C465.294 28.592 465.657 28.672 465.966 28.832C466.286 28.9813 466.553 29.184 466.766 29.44C466.99 29.696 467.161 29.9947 467.278 30.336C467.406 30.6773 467.486 31.0347 467.518 31.408H462.19ZM472.331 29.408V27.728H470.859V29.408H472.331ZM472.331 36V34.32H470.859V36H472.331ZM488.87 30.384C488.87 29.5947 488.758 28.8533 488.534 28.16C488.321 27.456 488.006 26.8427 487.59 26.32C487.185 25.7867 486.689 25.3707 486.102 25.072C485.526 24.7627 484.881 24.608 484.166 24.608C483.441 24.608 482.785 24.7627 482.198 25.072C481.611 25.3813 481.11 25.8027 480.694 26.336C480.289 26.8587 479.974 27.472 479.75 28.176C479.526 28.88 479.414 29.6267 479.414 30.416C479.414 31.2053 479.521 31.952 479.734 32.656C479.958 33.3493 480.273 33.9627 480.678 34.496C481.094 35.0187 481.59 35.4347 482.166 35.744C482.753 36.0427 483.409 36.192 484.134 36.192C484.849 36.192 485.499 36.0373 486.086 35.728C486.673 35.4187 487.169 35.0027 487.574 34.48C487.99 33.9467 488.31 33.328 488.534 32.624C488.758 31.92 488.87 31.1733 488.87 30.384ZM487.558 30.416C487.558 31.0347 487.478 31.6267 487.318 32.192C487.169 32.7467 486.945 33.2373 486.646 33.664C486.358 34.08 486.001 34.416 485.574 34.672C485.158 34.9173 484.689 35.04 484.166 35.04C483.643 35.04 483.169 34.9173 482.742 34.672C482.315 34.416 481.953 34.0747 481.654 33.648C481.355 33.2213 481.126 32.7253 480.966 32.16C480.806 31.5947 480.726 31.0027 480.726 30.384C480.726 29.7653 480.806 29.1787 480.966 28.624C481.126 28.0587 481.35 27.568 481.638 27.152C481.937 26.7253 482.294 26.3893 482.71 26.144C483.137 25.888 483.611 25.76 484.134 25.76C484.657 25.76 485.126 25.888 485.542 26.144C485.969 26.4 486.331 26.7413 486.63 27.168C486.929 27.5947 487.158 28.0907 487.318 28.656C487.478 29.2107 487.558 29.7973 487.558 30.416ZM496.567 25.936L493.031 29.92L493.287 30.672H494.007C494.935 30.672 495.687 30.8587 496.263 31.232C496.85 31.6053 497.143 32.144 497.143 32.848C497.143 33.1787 497.079 33.4827 496.951 33.76C496.823 34.0267 496.647 34.256 496.423 34.448C496.21 34.64 495.954 34.7893 495.655 34.896C495.356 34.992 495.036 35.04 494.695 35.04C494.002 35.04 493.388 34.896 492.855 34.608C492.332 34.32 491.852 33.9093 491.415 33.376L490.503 34.192C490.962 34.7893 491.538 35.2747 492.231 35.648C492.924 36.0107 493.74 36.192 494.679 36.192C495.202 36.192 495.687 36.112 496.135 35.952C496.594 35.7813 496.988 35.5467 497.319 35.248C497.66 34.9493 497.927 34.592 498.119 34.176C498.322 33.76 498.423 33.3013 498.423 32.8C498.423 32.288 498.322 31.84 498.119 31.456C497.916 31.072 497.644 30.752 497.303 30.496C496.972 30.24 496.583 30.0427 496.135 29.904C495.687 29.7653 495.218 29.6747 494.727 29.632L498.247 25.728V24.8H491.095V25.936H496.567ZM502.3 29.408V27.728H500.828V29.408H502.3ZM502.3 36V34.32H500.828V36H502.3ZM504.042 25.664L504.346 26.688L506.458 26.032V36H507.706V24.72H506.778L504.042 25.664ZM516.352 24.72L510.016 32.432L510.336 33.344H516.24V36H517.456V33.344H519.2V32.288H517.456V24.72H516.352ZM516.24 32.288H511.536L516.24 26.512V32.288ZM530.031 28.368C530.031 27.8133 529.929 27.3173 529.727 26.88C529.535 26.432 529.252 26.0587 528.878 25.76C528.516 25.4507 528.073 25.216 527.551 25.056C527.039 24.8853 526.468 24.8 525.839 24.8H521.647V36H522.911V32.048H525.631C526.228 32.048 526.793 31.9733 527.327 31.824C527.86 31.664 528.324 31.4293 528.719 31.12C529.124 30.8107 529.444 30.4267 529.679 29.968C529.913 29.5093 530.031 28.976 530.031 28.368ZM528.751 28.416C528.751 28.7893 528.676 29.1307 528.527 29.44C528.388 29.7387 528.18 30 527.903 30.224C527.636 30.4373 527.311 30.6027 526.927 30.72C526.553 30.8373 526.137 30.896 525.679 30.896H522.911V25.968H525.743C526.649 25.968 527.375 26.176 527.919 26.592C528.473 26.9973 528.751 27.6053 528.751 28.416ZM541.79 26.928V36H543.054V24.8H541.774L537.694 30.912L533.614 24.8H532.334V36H533.566V26.944L537.646 32.928H537.71L541.79 26.928ZM554.734 34.128L551.534 24.8H550.158L554.158 36.08H555.214L558.302 26.992L561.374 36.08H562.446L566.446 24.8H565.118L561.918 34.128L558.845 24.768H557.806L554.734 34.128ZM568.852 24.8V36H570.116V24.8H568.852ZM578.165 24.8H573.397V36H578.373C578.981 36 579.535 35.9307 580.036 35.792C580.538 35.6533 580.965 35.456 581.317 35.2C581.679 34.9333 581.957 34.608 582.149 34.224C582.341 33.84 582.437 33.408 582.437 32.928C582.437 32.544 582.373 32.2027 582.245 31.904C582.117 31.6053 581.946 31.3493 581.733 31.136C581.519 30.9227 581.263 30.7413 580.965 30.592C580.677 30.432 580.367 30.304 580.036 30.208C580.261 30.112 580.474 29.9947 580.677 29.856C580.89 29.7067 581.082 29.5253 581.253 29.312C581.423 29.0987 581.557 28.8533 581.653 28.576C581.759 28.2987 581.812 27.9733 581.812 27.6C581.812 27.1733 581.727 26.7893 581.557 26.448C581.386 26.096 581.141 25.8027 580.821 25.568C580.501 25.3227 580.117 25.136 579.669 25.008C579.221 24.8693 578.719 24.8 578.165 24.8ZM577.957 29.792H574.645V25.936H578.053C578.853 25.936 579.466 26.1013 579.892 26.432C580.319 26.7627 580.533 27.2107 580.533 27.776C580.533 28.4373 580.293 28.9387 579.812 29.28C579.333 29.6213 578.714 29.792 577.957 29.792ZM578.405 34.864H574.645V30.912H578.181C579.162 30.912 579.903 31.0827 580.405 31.424C580.906 31.7547 581.157 32.2293 581.157 32.848C581.157 33.488 580.911 33.984 580.421 34.336C579.93 34.688 579.258 34.864 578.405 34.864Z" fill="#F2F2F2"/>
<rect width="128" height="63" fill="#FFC40C"/>
<path d="M44.952 26.552C44.952 25.72 44.8 24.976 44.496 24.32C44.208 23.648 43.784 23.088 43.224 22.64C42.68 22.176 42.016 21.824 41.232 21.584C40.464 21.328 39.608 21.2 38.664 21.2H32.376V38H34.272V32.072H38.352C39.248 32.072 40.096 31.96 40.896 31.736C41.696 31.496 42.392 31.144 42.984 30.68C43.592 30.216 44.072 29.64 44.424 28.952C44.776 28.264 44.952 27.464 44.952 26.552ZM43.032 26.624C43.032 27.184 42.92 27.696 42.696 28.16C42.488 28.608 42.176 29 41.76 29.336C41.36 29.656 40.872 29.904 40.296 30.08C39.736 30.256 39.112 30.344 38.424 30.344H34.272V22.952H38.52C39.88 22.952 40.968 23.264 41.784 23.888C42.616 24.496 43.032 25.408 43.032 26.624ZM54.7673 22.952H60.4073V21.2H47.2073V22.952H52.8473V38H54.7673V22.952ZM71.1218 21.2H63.9698V38H71.4338C72.3458 38 73.1778 37.896 73.9297 37.688C74.6818 37.48 75.3218 37.184 75.8498 36.8C76.3938 36.4 76.8098 35.912 77.0978 35.336C77.3858 34.76 77.5298 34.112 77.5298 33.392C77.5298 32.816 77.4338 32.304 77.2418 31.856C77.0498 31.408 76.7938 31.024 76.4738 30.704C76.1538 30.384 75.7698 30.112 75.3218 29.888C74.8898 29.648 74.4258 29.456 73.9297 29.312C74.2658 29.168 74.5858 28.992 74.8898 28.784C75.2098 28.56 75.4978 28.288 75.7538 27.968C76.0098 27.648 76.2098 27.28 76.3538 26.864C76.5138 26.448 76.5938 25.96 76.5938 25.4C76.5938 24.76 76.4658 24.184 76.2098 23.672C75.9538 23.144 75.5858 22.704 75.1058 22.352C74.6258 21.984 74.0498 21.704 73.3778 21.512C72.7058 21.304 71.9538 21.2 71.1218 21.2ZM70.8098 28.688H65.8418V22.904H70.9538C72.1538 22.904 73.0738 23.152 73.7137 23.648C74.3538 24.144 74.6738 24.816 74.6738 25.664C74.6738 26.656 74.3138 27.408 73.5938 27.92C72.8738 28.432 71.9458 28.688 70.8098 28.688ZM71.4818 36.296H65.8418V30.368H71.1458C72.6178 30.368 73.7298 30.624 74.4818 31.136C75.2338 31.632 75.6098 32.344 75.6098 33.272C75.6098 34.232 75.2418 34.976 74.5058 35.504C73.7698 36.032 72.7618 36.296 71.4818 36.296ZM89.2821 21.08H87.5061L79.8501 38H81.7941L83.7861 33.56H92.9301L94.8981 38H96.9381L89.2821 21.08ZM92.1861 31.856H84.5301L88.3701 23.288L92.1861 31.856Z" fill="#333333"/>
<path d="M157.96 23.08L148.744 33.76L149.344 36.376H157.552V40H161.08V36.376H163.336V33.376H161.08V23.08H157.96ZM157.552 33.376H153.088L157.552 28.144V33.376ZM169.923 40V36.16H166.035V40H169.923ZM178.83 26.272C180.15 26.272 181.086 27.04 181.086 28.456C181.086 29.848 180.27 30.76 178.182 32.488L172.59 37.072V40H185.022V36.808H177.702L180.438 34.696C183.414 32.392 184.854 30.976 184.854 28.168C184.854 25.024 182.646 22.96 179.07 22.96C176.07 22.96 174.462 24.184 172.806 26.44L175.398 28.528C176.646 26.992 177.534 26.272 178.83 26.272ZM200.287 24.76C198.799 23.584 197.311 22.912 195.031 22.912C190.015 22.912 187.663 26.896 187.663 32.104C187.663 35.464 188.431 37.264 189.655 38.488C190.831 39.664 192.319 40.288 194.503 40.288C198.151 40.288 200.911 37.912 200.911 34.456C200.911 30.928 198.343 29.08 195.007 29.08C193.351 29.08 192.367 29.608 191.527 30.16C191.767 27.952 192.823 26.272 194.911 26.272C196.351 26.272 197.239 26.776 198.343 27.616L200.287 24.76ZM197.239 34.624C197.239 36.088 196.183 37.12 194.359 37.12C192.535 37.12 191.431 36.064 191.431 34.6C191.431 33.16 192.487 32.152 194.311 32.152C196.135 32.152 197.239 33.184 197.239 34.624ZM218.482 31.576C218.482 26.68 215.53 22.912 211.042 22.912C206.554 22.912 203.554 26.728 203.554 31.624C203.554 36.52 206.506 40.288 210.994 40.288C215.482 40.288 218.482 36.472 218.482 31.576ZM214.69 31.624C214.69 34.696 213.274 36.952 211.042 36.952C208.81 36.952 207.346 34.672 207.346 31.576C207.346 28.48 208.762 26.248 210.994 26.248C213.226 26.248 214.69 28.552 214.69 31.624ZM219.944 42.376L220.256 43.888C223.112 43.84 224.696 42.568 224.696 39.4V36.16H220.808V40H222.296C222.416 41.368 221.6 42.208 219.944 42.376ZM241.943 31.576C241.943 26.68 238.991 22.912 234.503 22.912C230.015 22.912 227.015 26.728 227.015 31.624C227.015 36.52 229.967 40.288 234.455 40.288C238.943 40.288 241.943 36.472 241.943 31.576ZM238.151 31.624C238.151 34.696 236.735 36.952 234.503 36.952C232.271 36.952 230.807 34.672 230.807 31.576C230.807 28.48 232.223 26.248 234.455 26.248C236.687 26.248 238.151 28.552 238.151 31.624ZM259.474 31.576C259.474 26.68 256.522 22.912 252.034 22.912C247.546 22.912 244.546 26.728 244.546 31.624C244.546 36.52 247.498 40.288 251.986 40.288C256.474 40.288 259.474 36.472 259.474 31.576ZM255.682 31.624C255.682 34.696 254.266 36.952 252.034 36.952C249.802 36.952 248.338 34.672 248.338 31.576C248.338 28.48 249.754 26.248 251.986 26.248C254.218 26.248 255.682 28.552 255.682 31.624Z" fill="#F2F2F2"/>
<path d="M321.072 23.064L320.28 21.84C318.136 23.04 316.488 24.496 315.336 26.208C314.2 27.92 313.632 29.888 313.632 32.112C313.632 34.336 314.2 36.304 315.336 38.016C316.488 39.728 318.136 41.184 320.28 42.384L321.072 41.16C319.232 39.992 317.84 38.68 316.896 37.224C315.968 35.752 315.504 34.048 315.504 32.112C315.504 30.176 315.968 28.48 316.896 27.024C317.84 25.552 319.232 24.232 321.072 23.064ZM323.078 23.496L323.534 25.032L326.702 24.048V39H328.574V22.08H327.182L323.078 23.496ZM335.064 39V36.48H332.856V39H335.064ZM336.367 23.496L336.823 25.032L339.991 24.048V39H341.863V22.08H340.471L336.367 23.496ZM358.361 30.168C358.361 29.32 358.313 28.568 358.217 27.912C358.121 27.24 357.985 26.648 357.809 26.136C357.633 25.608 357.417 25.144 357.161 24.744C356.905 24.344 356.609 23.976 356.273 23.64C355.729 23.096 355.097 22.672 354.377 22.368C353.657 22.064 352.817 21.912 351.857 21.912C350.961 21.912 350.137 22.064 349.385 22.368C348.649 22.656 348.017 23.064 347.489 23.592C346.961 24.104 346.545 24.712 346.241 25.416C345.953 26.104 345.809 26.848 345.809 27.648C345.809 28.416 345.953 29.12 346.241 29.76C346.529 30.4 346.929 30.952 347.441 31.416C347.953 31.88 348.569 32.24 349.289 32.496C350.009 32.752 350.801 32.88 351.665 32.88C352.833 32.88 353.801 32.616 354.569 32.088C355.337 31.56 355.953 30.928 356.417 30.192C356.433 31.264 356.321 32.256 356.081 33.168C355.857 34.064 355.521 34.84 355.073 35.496C354.641 36.136 354.113 36.64 353.489 37.008C352.865 37.376 352.177 37.56 351.425 37.56C350.673 37.56 349.969 37.416 349.313 37.128C348.657 36.824 347.985 36.368 347.297 35.76L346.193 37.224C346.913 37.816 347.681 38.312 348.497 38.712C349.313 39.096 350.273 39.288 351.377 39.288C352.417 39.288 353.361 39.064 354.209 38.616C355.073 38.168 355.809 37.544 356.417 36.744C357.041 35.928 357.521 34.968 357.857 33.864C358.193 32.744 358.361 31.512 358.361 30.168ZM356.057 27.432C356.057 27.912 355.961 28.384 355.769 28.848C355.577 29.312 355.297 29.72 354.929 30.072C354.577 30.424 354.137 30.712 353.609 30.936C353.097 31.144 352.521 31.248 351.881 31.248C351.273 31.248 350.713 31.16 350.201 30.984C349.689 30.792 349.249 30.536 348.881 30.216C348.529 29.88 348.249 29.488 348.041 29.04C347.849 28.592 347.753 28.096 347.753 27.552C347.753 27.024 347.841 26.52 348.017 26.04C348.209 25.56 348.473 25.144 348.809 24.792C349.161 24.424 349.585 24.136 350.081 23.928C350.593 23.704 351.161 23.592 351.785 23.592C352.409 23.592 352.985 23.696 353.513 23.904C354.041 24.096 354.489 24.368 354.857 24.72C355.241 25.056 355.537 25.456 355.745 25.92C355.953 26.384 356.057 26.888 356.057 27.432ZM368.692 26.28C368.692 25.704 368.596 25.16 368.404 24.648C368.228 24.136 367.972 23.688 367.636 23.304C367.316 22.904 366.924 22.592 366.46 22.368C365.996 22.128 365.484 22.008 364.924 22.008C364.348 22.008 363.82 22.128 363.34 22.368C362.876 22.592 362.476 22.904 362.14 23.304C361.804 23.704 361.54 24.168 361.348 24.696C361.172 25.208 361.084 25.752 361.084 26.328C361.084 26.904 361.172 27.448 361.348 27.96C361.54 28.472 361.796 28.928 362.116 29.328C362.452 29.712 362.852 30.024 363.316 30.264C363.78 30.488 364.3 30.6 364.876 30.6C365.452 30.6 365.972 30.488 366.436 30.264C366.9 30.024 367.3 29.704 367.636 29.304C367.972 28.904 368.228 28.448 368.404 27.936C368.596 27.408 368.692 26.856 368.692 26.28ZM376.852 22.2H375.148L362.812 39H364.54L376.852 22.2ZM378.58 34.872C378.58 34.296 378.492 33.752 378.316 33.24C378.14 32.728 377.884 32.28 377.548 31.896C377.228 31.496 376.836 31.184 376.372 30.96C375.908 30.72 375.388 30.6 374.812 30.6C374.236 30.6 373.716 30.72 373.252 30.96C372.788 31.184 372.388 31.496 372.052 31.896C371.716 32.296 371.452 32.76 371.26 33.288C371.084 33.8 370.996 34.344 370.996 34.92C370.996 35.496 371.084 36.04 371.26 36.552C371.452 37.064 371.708 37.52 372.028 37.92C372.364 38.304 372.764 38.616 373.228 38.856C373.692 39.08 374.204 39.192 374.764 39.192C375.34 39.192 375.86 39.08 376.324 38.856C376.804 38.616 377.204 38.296 377.524 37.896C377.86 37.496 378.116 37.04 378.292 36.528C378.484 36 378.58 35.448 378.58 34.872ZM367.108 26.328C367.108 26.744 367.052 27.128 366.94 27.48C366.844 27.832 366.7 28.144 366.508 28.416C366.316 28.672 366.084 28.88 365.812 29.04C365.54 29.184 365.244 29.256 364.924 29.256C364.604 29.256 364.308 29.184 364.036 29.04C363.78 28.88 363.548 28.672 363.34 28.416C363.132 28.144 362.972 27.832 362.86 27.48C362.748 27.112 362.692 26.712 362.692 26.28C362.692 25.88 362.74 25.504 362.836 25.152C362.948 24.784 363.1 24.472 363.292 24.216C363.484 23.944 363.708 23.736 363.964 23.592C364.236 23.432 364.54 23.352 364.876 23.352C365.18 23.352 365.468 23.432 365.74 23.592C366.012 23.736 366.244 23.944 366.436 24.216C366.644 24.472 366.804 24.784 366.916 25.152C367.044 25.504 367.108 25.896 367.108 26.328ZM376.996 34.92C376.996 35.336 376.94 35.72 376.828 36.072C376.732 36.424 376.588 36.736 376.396 37.008C376.204 37.264 375.972 37.472 375.7 37.632C375.444 37.776 375.148 37.848 374.812 37.848C374.492 37.848 374.196 37.776 373.924 37.632C373.668 37.472 373.436 37.264 373.228 37.008C373.02 36.736 372.86 36.424 372.748 36.072C372.636 35.704 372.58 35.304 372.58 34.872C372.58 34.472 372.628 34.096 372.724 33.744C372.836 33.376 372.988 33.064 373.18 32.808C373.372 32.536 373.604 32.328 373.876 32.184C374.148 32.024 374.444 31.944 374.764 31.944C375.068 31.944 375.356 32.024 375.628 32.184C375.9 32.328 376.14 32.536 376.348 32.808C376.556 33.064 376.716 33.376 376.828 33.744C376.94 34.096 376.996 34.488 376.996 34.92ZM381.196 23.064C383.036 24.232 384.42 25.552 385.348 27.024C386.292 28.48 386.764 30.176 386.764 32.112C386.764 34.048 386.292 35.752 385.348 37.224C384.42 38.68 383.036 39.992 381.196 41.16L381.988 42.384C384.132 41.184 385.772 39.728 386.908 38.016C388.06 36.304 388.636 34.336 388.636 32.112C388.636 29.888 388.06 27.92 386.908 26.208C385.772 24.496 384.132 23.04 381.988 21.84L381.196 23.064Z" fill="#F2F2F2"/>
<path d="M273.5 31C273.5 37.9036 279.096 43.5 286 43.5C292.904 43.5 298.5 37.9036 298.5 31C298.5 24.0964 292.904 18.5 286 18.5" stroke="#F2F2F2" stroke-width="2.5" stroke-linecap="round" stroke-linejoin="round"/>
<path d="M293.5 31C293.5 26.8579 290.142 23.5 286 23.5C281.858 23.5 278.5 26.8579 278.5 31C278.5 35.1421 281.858 38.5 286 38.5" stroke="#F2F2F2" stroke-width="2.5" stroke-linecap="round" stroke-linejoin="round"/>
<path d="M40.968 85.368C40.968 84.8133 40.8667 84.3173 40.664 83.88C40.472 83.432 40.1893 83.0587 39.816 82.76C39.4533 82.4507 39.0107 82.216 38.488 82.056C37.976 81.8853 37.4053 81.8 36.776 81.8H32.584V93H33.848V89.048H36.568C37.1653 89.048 37.7307 88.9733 38.264 88.824C38.7973 88.664 39.2613 88.4293 39.656 88.12C40.0613 87.8107 40.3813 87.4267 40.616 86.968C40.8507 86.5093 40.968 85.976 40.968 85.368ZM39.688 85.416C39.688 85.7893 39.6133 86.1307 39.464 86.44C39.3253 86.7387 39.1173 87 38.84 87.224C38.5733 87.4373 38.248 87.6027 37.864 87.72C37.4907 87.8373 37.0747 87.896 36.616 87.896H33.848V82.968H36.68C37.5867 82.968 38.312 83.176 38.856 83.592C39.4107 83.9973 39.688 84.6053 39.688 85.416ZM44.2955 89.704C44.2955 89.0853 44.3808 88.5413 44.5515 88.072C44.7222 87.592 44.9568 87.192 45.2555 86.872C45.5542 86.552 45.9008 86.312 46.2955 86.152C46.7008 85.992 47.1275 85.912 47.5755 85.912H47.6715V84.584C47.2768 84.5733 46.9088 84.6213 46.5675 84.728C46.2262 84.8347 45.9115 84.9947 45.6235 85.208C45.3355 85.4107 45.0795 85.656 44.8555 85.944C44.6315 86.232 44.4448 86.5467 44.2955 86.888V84.728H43.0635V93H44.2955V89.704ZM49.9245 89.32H56.4845C56.4952 89.2453 56.5005 89.176 56.5005 89.112C56.5005 89.048 56.5005 88.9893 56.5005 88.936C56.5005 88.328 56.4152 87.7573 56.2445 87.224C56.0738 86.6907 55.8232 86.2267 55.4925 85.832C55.1618 85.4373 54.7565 85.128 54.2765 84.904C53.7965 84.6693 53.2525 84.552 52.6445 84.552C52.0685 84.552 51.5352 84.664 51.0445 84.888C50.5645 85.112 50.1485 85.4213 49.7965 85.816C49.4445 86.2 49.1672 86.6587 48.9645 87.192C48.7725 87.7147 48.6765 88.2747 48.6765 88.872C48.6765 89.512 48.7832 90.0987 48.9965 90.632C49.2205 91.1653 49.5192 91.624 49.8925 92.008C50.2658 92.3813 50.7032 92.6747 51.2045 92.888C51.7058 93.0907 52.2392 93.192 52.8045 93.192C53.5938 93.192 54.2552 93.0533 54.7885 92.776C55.3218 92.488 55.7965 92.1093 56.2125 91.64L55.4445 90.952C55.1032 91.304 54.7245 91.5867 54.3085 91.8C53.9032 92.0133 53.4125 92.12 52.8365 92.12C52.4738 92.12 52.1272 92.0613 51.7965 91.944C51.4658 91.816 51.1672 91.6347 50.9005 91.4C50.6338 91.1547 50.4152 90.8613 50.2445 90.52C50.0738 90.168 49.9672 89.768 49.9245 89.32ZM49.9245 88.408C49.9672 88.0027 50.0632 87.6293 50.2125 87.288C50.3618 86.9467 50.5538 86.6533 50.7885 86.408C51.0232 86.152 51.2952 85.9547 51.6045 85.816C51.9138 85.6667 52.2498 85.592 52.6125 85.592C53.0285 85.592 53.3912 85.672 53.7005 85.832C54.0205 85.9813 54.2872 86.184 54.5005 86.44C54.7245 86.696 54.8952 86.9947 55.0125 87.336C55.1405 87.6773 55.2205 88.0347 55.2525 88.408H49.9245ZM61.579 91.592L58.795 84.728H57.435L61.019 93.064H62.107L65.707 84.728H64.379L61.579 91.592ZM69.0816 82.92V81.56H67.6736V82.92H69.0816ZM68.9856 93V84.728H67.7536V93H68.9856ZM79.9568 88.856C79.9568 88.2693 79.8501 87.7147 79.6368 87.192C79.4234 86.6693 79.1248 86.216 78.7408 85.832C78.3568 85.4373 77.8981 85.128 77.3648 84.904C76.8421 84.6693 76.2714 84.552 75.6528 84.552C75.0234 84.552 74.4421 84.6693 73.9088 84.904C73.3861 85.128 72.9328 85.4373 72.5488 85.832C72.1648 86.2267 71.8661 86.6907 71.6528 87.224C71.4394 87.7467 71.3328 88.3013 71.3328 88.888C71.3328 89.4747 71.4394 90.0293 71.6528 90.552C71.8661 91.0747 72.1648 91.5333 72.5488 91.928C72.9328 92.312 73.3861 92.6213 73.9088 92.856C74.4314 93.08 75.0021 93.192 75.6208 93.192C76.2394 93.192 76.8154 93.08 77.3488 92.856C77.8821 92.6213 78.3408 92.3067 78.7248 91.912C79.1088 91.5173 79.4074 91.0587 79.6208 90.536C79.8448 90.0027 79.9568 89.4427 79.9568 88.856ZM78.6927 88.888C78.6927 89.336 78.6181 89.7573 78.4688 90.152C78.3194 90.536 78.1114 90.872 77.8448 91.16C77.5781 91.448 77.2581 91.6773 76.8848 91.848C76.5114 92.008 76.1008 92.088 75.6528 92.088C75.2154 92.088 74.8101 92.0027 74.4368 91.832C74.0634 91.6613 73.7381 91.432 73.4608 91.144C73.1941 90.856 72.9808 90.5147 72.8207 90.12C72.6714 89.7253 72.5968 89.304 72.5968 88.856C72.5968 88.408 72.6714 87.992 72.8207 87.608C72.9701 87.2133 73.1728 86.872 73.4288 86.584C73.6954 86.2853 74.0154 86.056 74.3888 85.896C74.7621 85.7253 75.1728 85.64 75.6208 85.64C76.0581 85.64 76.4634 85.7253 76.8368 85.896C77.2101 86.0667 77.5354 86.3013 77.8128 86.6C78.0901 86.888 78.3034 87.2293 78.4528 87.624C78.6128 88.0187 78.6927 88.44 78.6927 88.888ZM88.0605 89.464C88.0605 89.848 87.9965 90.2 87.8685 90.52C87.7405 90.84 87.5645 91.1173 87.3405 91.352C87.1272 91.576 86.8658 91.752 86.5565 91.88C86.2578 91.9973 85.9325 92.056 85.5805 92.056C84.8445 92.056 84.2792 91.832 83.8845 91.384C83.4898 90.936 83.2925 90.328 83.2925 89.56V84.728H82.0605V89.864C82.0605 90.3547 82.1298 90.8027 82.2685 91.208C82.4178 91.6133 82.6258 91.9653 82.8925 92.264C83.1698 92.552 83.5005 92.776 83.8845 92.936C84.2792 93.096 84.7272 93.176 85.2285 93.176C85.9432 93.176 86.5245 93.0213 86.9725 92.712C87.4205 92.392 87.7832 92.008 88.0605 91.56V93H89.2765V84.728H88.0605V89.464ZM97.7279 90.68V90.648C97.7279 90.2747 97.6479 89.96 97.4879 89.704C97.3385 89.448 97.1359 89.2293 96.8799 89.048C96.6239 88.8667 96.3359 88.7173 96.0159 88.6C95.7065 88.4827 95.3919 88.376 95.0719 88.28C94.7945 88.1947 94.5279 88.1093 94.2719 88.024C94.0159 87.9387 93.7865 87.8427 93.5839 87.736C93.3919 87.6293 93.2372 87.5067 93.1199 87.368C93.0025 87.2187 92.9439 87.048 92.9439 86.856V86.824C92.9439 86.4827 93.0879 86.2 93.3759 85.976C93.6639 85.7413 94.0532 85.624 94.5439 85.624C94.9492 85.624 95.3599 85.6987 95.7759 85.848C96.2025 85.9867 96.6079 86.1787 96.9919 86.424L97.5519 85.496C97.1252 85.2187 96.6505 85 96.1279 84.84C95.6052 84.6693 95.0879 84.584 94.5759 84.584C94.1705 84.584 93.7919 84.6427 93.4399 84.76C93.0985 84.8667 92.7999 85.0267 92.5439 85.24C92.2985 85.4427 92.1065 85.6933 91.9679 85.992C91.8292 86.28 91.7599 86.6 91.7599 86.952V86.984C91.7599 87.368 91.8399 87.688 91.9999 87.944C92.1705 88.2 92.3839 88.4133 92.6399 88.584C92.9065 88.7547 93.1999 88.8987 93.5199 89.016C93.8505 89.1227 94.1759 89.224 94.4959 89.32C94.7625 89.3947 95.0185 89.4747 95.2639 89.56C95.5199 89.6453 95.7439 89.7467 95.9359 89.864C96.1279 89.9707 96.2772 90.0987 96.3839 90.248C96.5012 90.3973 96.5599 90.5733 96.5599 90.776V90.808C96.5599 91.2133 96.3999 91.5333 96.0799 91.768C95.7599 92.0027 95.3492 92.12 94.8479 92.12C94.3572 92.12 93.8665 92.0293 93.3759 91.848C92.8959 91.6667 92.4319 91.4053 91.9839 91.064L91.3599 91.944C91.8292 92.3173 92.3679 92.616 92.9759 92.84C93.5839 93.0533 94.1865 93.16 94.7839 93.16C95.1999 93.16 95.5839 93.1067 95.9359 93C96.2985 92.8827 96.6079 92.7173 96.8639 92.504C97.1305 92.2907 97.3385 92.0347 97.4879 91.736C97.6479 91.4267 97.7279 91.0747 97.7279 90.68ZM114.622 91.224L113.79 90.408C113.256 90.92 112.712 91.32 112.158 91.608C111.603 91.8853 110.942 92.024 110.174 92.024C109.555 92.024 108.979 91.9067 108.446 91.672C107.923 91.4267 107.464 91.096 107.07 90.68C106.686 90.264 106.382 89.7733 106.158 89.208C105.944 88.6427 105.838 88.0347 105.838 87.384C105.838 86.7333 105.944 86.1307 106.158 85.576C106.382 85.0107 106.686 84.52 107.07 84.104C107.464 83.688 107.923 83.3627 108.446 83.128C108.979 82.8933 109.555 82.776 110.174 82.776C110.942 82.776 111.598 82.92 112.142 83.208C112.696 83.496 113.214 83.864 113.694 84.312L114.558 83.384C114.28 83.1173 113.992 82.8773 113.694 82.664C113.395 82.44 113.07 82.2533 112.718 82.104C112.366 81.944 111.982 81.8213 111.566 81.736C111.16 81.6507 110.702 81.608 110.19 81.608C109.368 81.608 108.611 81.7627 107.918 82.072C107.224 82.3707 106.627 82.7867 106.126 83.32C105.624 83.8427 105.23 84.456 104.942 85.16C104.664 85.864 104.526 86.616 104.526 87.416C104.526 88.2267 104.664 88.984 104.942 89.688C105.23 90.392 105.624 91.0053 106.126 91.528C106.627 92.04 107.219 92.4453 107.902 92.744C108.584 93.0427 109.331 93.192 110.142 93.192C110.654 93.192 111.118 93.144 111.534 93.048C111.95 92.952 112.339 92.8187 112.702 92.648C113.064 92.4773 113.4 92.2747 113.71 92.04C114.03 91.7947 114.334 91.5227 114.622 91.224ZM117.97 93V81.32H116.738V93H117.97ZM128.941 88.856C128.941 88.2693 128.834 87.7147 128.621 87.192C128.408 86.6693 128.109 86.216 127.725 85.832C127.341 85.4373 126.882 85.128 126.349 84.904C125.826 84.6693 125.256 84.552 124.637 84.552C124.008 84.552 123.426 84.6693 122.893 84.904C122.37 85.128 121.917 85.4373 121.533 85.832C121.149 86.2267 120.85 86.6907 120.637 87.224C120.424 87.7467 120.317 88.3013 120.317 88.888C120.317 89.4747 120.424 90.0293 120.637 90.552C120.85 91.0747 121.149 91.5333 121.533 91.928C121.917 92.312 122.37 92.6213 122.893 92.856C123.416 93.08 123.986 93.192 124.605 93.192C125.224 93.192 125.8 93.08 126.333 92.856C126.866 92.6213 127.325 92.3067 127.709 91.912C128.093 91.5173 128.392 91.0587 128.605 90.536C128.829 90.0027 128.941 89.4427 128.941 88.856ZM127.677 88.888C127.677 89.336 127.602 89.7573 127.453 90.152C127.304 90.536 127.096 90.872 126.829 91.16C126.562 91.448 126.242 91.6773 125.869 91.848C125.496 92.008 125.085 92.088 124.637 92.088C124.2 92.088 123.794 92.0027 123.421 91.832C123.048 91.6613 122.722 91.432 122.445 91.144C122.178 90.856 121.965 90.5147 121.805 90.12C121.656 89.7253 121.581 89.304 121.581 88.856C121.581 88.408 121.656 87.992 121.805 87.608C121.954 87.2133 122.157 86.872 122.413 86.584C122.68 86.2853 123 86.056 123.373 85.896C123.746 85.7253 124.157 85.64 124.605 85.64C125.042 85.64 125.448 85.7253 125.821 85.896C126.194 86.0667 126.52 86.3013 126.797 86.6C127.074 86.888 127.288 87.2293 127.437 87.624C127.597 88.0187 127.677 88.44 127.677 88.888ZM136.853 90.68V90.648C136.853 90.2747 136.773 89.96 136.613 89.704C136.464 89.448 136.261 89.2293 136.005 89.048C135.749 88.8667 135.461 88.7173 135.141 88.6C134.832 88.4827 134.517 88.376 134.197 88.28C133.92 88.1947 133.653 88.1093 133.397 88.024C133.141 87.9387 132.912 87.8427 132.709 87.736C132.517 87.6293 132.362 87.5067 132.245 87.368C132.128 87.2187 132.069 87.048 132.069 86.856V86.824C132.069 86.4827 132.213 86.2 132.501 85.976C132.789 85.7413 133.178 85.624 133.669 85.624C134.074 85.624 134.485 85.6987 134.901 85.848C135.328 85.9867 135.733 86.1787 136.117 86.424L136.677 85.496C136.25 85.2187 135.776 85 135.253 84.84C134.73 84.6693 134.213 84.584 133.701 84.584C133.296 84.584 132.917 84.6427 132.565 84.76C132.224 84.8667 131.925 85.0267 131.669 85.24C131.424 85.4427 131.232 85.6933 131.093 85.992C130.954 86.28 130.885 86.6 130.885 86.952V86.984C130.885 87.368 130.965 87.688 131.125 87.944C131.296 88.2 131.509 88.4133 131.765 88.584C132.032 88.7547 132.325 88.8987 132.645 89.016C132.976 89.1227 133.301 89.224 133.621 89.32C133.888 89.3947 134.144 89.4747 134.389 89.56C134.645 89.6453 134.869 89.7467 135.061 89.864C135.253 89.9707 135.402 90.0987 135.509 90.248C135.626 90.3973 135.685 90.5733 135.685 90.776V90.808C135.685 91.2133 135.525 91.5333 135.205 91.768C134.885 92.0027 134.474 92.12 133.973 92.12C133.482 92.12 132.992 92.0293 132.501 91.848C132.021 91.6667 131.557 91.4053 131.109 91.064L130.485 91.944C130.954 92.3173 131.493 92.616 132.101 92.84C132.709 93.0533 133.312 93.16 133.909 93.16C134.325 93.16 134.709 93.1067 135.061 93C135.424 92.8827 135.733 92.7173 135.989 92.504C136.256 92.2907 136.464 92.0347 136.613 91.736C136.773 91.4267 136.853 91.0747 136.853 90.68ZM139.878 89.32H146.438C146.448 89.2453 146.454 89.176 146.454 89.112C146.454 89.048 146.454 88.9893 146.454 88.936C146.454 88.328 146.368 87.7573 146.198 87.224C146.027 86.6907 145.776 86.2267 145.446 85.832C145.115 85.4373 144.71 85.128 144.23 84.904C143.75 84.6693 143.206 84.552 142.598 84.552C142.022 84.552 141.488 84.664 140.998 84.888C140.518 85.112 140.102 85.4213 139.75 85.816C139.398 86.2 139.12 86.6587 138.918 87.192C138.726 87.7147 138.63 88.2747 138.63 88.872C138.63 89.512 138.736 90.0987 138.95 90.632C139.174 91.1653 139.472 91.624 139.846 92.008C140.219 92.3813 140.656 92.6747 141.158 92.888C141.659 93.0907 142.192 93.192 142.758 93.192C143.547 93.192 144.208 93.0533 144.742 92.776C145.275 92.488 145.75 92.1093 146.166 91.64L145.398 90.952C145.056 91.304 144.678 91.5867 144.262 91.8C143.856 92.0133 143.366 92.12 142.79 92.12C142.427 92.12 142.08 92.0613 141.75 91.944C141.419 91.816 141.12 91.6347 140.854 91.4C140.587 91.1547 140.368 90.8613 140.198 90.52C140.027 90.168 139.92 89.768 139.878 89.32ZM139.878 88.408C139.92 88.0027 140.016 87.6293 140.166 87.288C140.315 86.9467 140.507 86.6533 140.742 86.408C140.976 86.152 141.248 85.9547 141.558 85.816C141.867 85.6667 142.203 85.592 142.566 85.592C142.982 85.592 143.344 85.672 143.654 85.832C143.974 85.9813 144.24 86.184 144.454 86.44C144.678 86.696 144.848 86.9947 144.966 87.336C145.094 87.6773 145.174 88.0347 145.206 88.408H139.878ZM31.448 112.664L31.752 113.688L33.864 113.032V123H35.112V111.72H34.184L31.448 112.664ZM37.4704 124.392L37.6624 124.952C38.2704 124.813 38.7184 124.573 39.0064 124.232C39.2944 123.901 39.4384 123.411 39.4384 122.76V121.32H37.9664V123H38.5424C38.5744 123.341 38.505 123.619 38.3344 123.832C38.1637 124.056 37.8757 124.243 37.4704 124.392ZM41.4318 112.952H47.5918L42.5358 123H43.9438L49.0318 112.744V111.8H41.4318V112.952ZM60.0105 117.384C60.0105 116.595 59.8985 115.853 59.6745 115.16C59.4612 114.456 59.1465 113.843 58.7305 113.32C58.3252 112.787 57.8292 112.371 57.2425 112.072C56.6665 111.763 56.0212 111.608 55.3065 111.608C54.5812 111.608 53.9252 111.763 53.3385 112.072C52.7518 112.381 52.2505 112.803 51.8345 113.336C51.4292 113.859 51.1145 114.472 50.8905 115.176C50.6665 115.88 50.5545 116.627 50.5545 117.416C50.5545 118.205 50.6612 118.952 50.8745 119.656C51.0985 120.349 51.4132 120.963 51.8185 121.496C52.2345 122.019 52.7305 122.435 53.3065 122.744C53.8932 123.043 54.5492 123.192 55.2745 123.192C55.9892 123.192 56.6398 123.037 57.2265 122.728C57.8132 122.419 58.3092 122.003 58.7145 121.48C59.1305 120.947 59.4505 120.328 59.6745 119.624C59.8985 118.92 60.0105 118.173 60.0105 117.384ZM58.6985 117.416C58.6985 118.035 58.6185 118.627 58.4585 119.192C58.3092 119.747 58.0852 120.237 57.7865 120.664C57.4985 121.08 57.1412 121.416 56.7145 121.672C56.2985 121.917 55.8292 122.04 55.3065 122.04C54.7838 122.04 54.3092 121.917 53.8825 121.672C53.4558 121.416 53.0932 121.075 52.7945 120.648C52.4958 120.221 52.2665 119.725 52.1065 119.16C51.9465 118.595 51.8665 118.003 51.8665 117.384C51.8665 116.765 51.9465 116.179 52.1065 115.624C52.2665 115.059 52.4905 114.568 52.7785 114.152C53.0772 113.725 53.4345 113.389 53.8505 113.144C54.2772 112.888 54.7518 112.76 55.2745 112.76C55.7972 112.76 56.2665 112.888 56.6825 113.144C57.1092 113.4 57.4718 113.741 57.7705 114.168C58.0692 114.595 58.2985 115.091 58.4585 115.656C58.6185 116.211 58.6985 116.797 58.6985 117.416ZM62.584 117.256L63.432 117.816C63.7627 117.635 64.1147 117.485 64.488 117.368C64.872 117.24 65.304 117.176 65.784 117.176C66.2 117.176 66.5787 117.235 66.92 117.352C67.2613 117.469 67.5547 117.635 67.8 117.848C68.0453 118.051 68.232 118.296 68.36 118.584C68.4987 118.872 68.568 119.192 68.568 119.544C68.568 119.907 68.4987 120.243 68.36 120.552C68.232 120.851 68.0507 121.112 67.816 121.336C67.5813 121.56 67.2933 121.736 66.952 121.864C66.6213 121.981 66.2587 122.04 65.864 122.04C65.288 122.04 64.7333 121.907 64.2 121.64C63.6773 121.363 63.1707 120.984 62.68 120.504L61.848 121.416C62.36 121.928 62.952 122.355 63.624 122.696C64.3067 123.027 65.048 123.192 65.848 123.192C66.4347 123.192 66.9733 123.107 67.464 122.936C67.9547 122.755 68.376 122.504 68.728 122.184C69.08 121.853 69.352 121.464 69.544 121.016C69.7467 120.557 69.848 120.051 69.848 119.496C69.848 118.963 69.7467 118.483 69.544 118.056C69.352 117.629 69.08 117.272 68.728 116.984C68.376 116.685 67.9653 116.456 67.496 116.296C67.0267 116.136 66.52 116.056 65.976 116.056C65.5067 116.056 65.1013 116.104 64.76 116.2C64.4293 116.285 64.0987 116.403 63.768 116.552L64.008 112.968H69.352V111.8H62.904L62.584 117.256ZM73.5009 123V121.32H72.0289V123H73.5009ZM84.8543 117.384C84.8543 116.595 84.7423 115.853 84.5183 115.16C84.3049 114.456 83.9903 113.843 83.5743 113.32C83.1689 112.787 82.6729 112.371 82.0863 112.072C81.5103 111.763 80.8649 111.608 80.1503 111.608C79.4249 111.608 78.7689 111.763 78.1823 112.072C77.5956 112.381 77.0943 112.803 76.6783 113.336C76.2729 113.859 75.9583 114.472 75.7343 115.176C75.5103 115.88 75.3983 116.627 75.3983 117.416C75.3983 118.205 75.5049 118.952 75.7183 119.656C75.9423 120.349 76.2569 120.963 76.6623 121.496C77.0783 122.019 77.5743 122.435 78.1503 122.744C78.7369 123.043 79.3929 123.192 80.1183 123.192C80.8329 123.192 81.4836 123.037 82.0703 122.728C82.6569 122.419 83.1529 122.003 83.5583 121.48C83.9743 120.947 84.2943 120.328 84.5183 119.624C84.7423 118.92 84.8543 118.173 84.8543 117.384ZM83.5423 117.416C83.5423 118.035 83.4623 118.627 83.3023 119.192C83.1529 119.747 82.9289 120.237 82.6302 120.664C82.3423 121.08 81.9849 121.416 81.5583 121.672C81.1423 121.917 80.6729 122.04 80.1503 122.04C79.6276 122.04 79.1529 121.917 78.7263 121.672C78.2996 121.416 77.9369 121.075 77.6383 120.648C77.3396 120.221 77.1103 119.725 76.9503 119.16C76.7903 118.595 76.7103 118.003 76.7103 117.384C76.7103 116.765 76.7903 116.179 76.9503 115.624C77.1103 115.059 77.3343 114.568 77.6223 114.152C77.9209 113.725 78.2783 113.389 78.6943 113.144C79.1209 112.888 79.5956 112.76 80.1183 112.76C80.6409 112.76 81.1103 112.888 81.5263 113.144C81.9529 113.4 82.3156 113.741 82.6143 114.168C82.9129 114.595 83.1423 115.091 83.3023 115.656C83.4623 116.211 83.5423 116.797 83.5423 117.416ZM96.2918 117.384C96.2918 116.595 96.1798 115.853 95.9558 115.16C95.7424 114.456 95.4278 113.843 95.0118 113.32C94.6064 112.787 94.1104 112.371 93.5238 112.072C92.9478 111.763 92.3024 111.608 91.5878 111.608C90.8624 111.608 90.2064 111.763 89.6198 112.072C89.0331 112.381 88.5318 112.803 88.1158 113.336C87.7104 113.859 87.3958 114.472 87.1718 115.176C86.9478 115.88 86.8358 116.627 86.8358 117.416C86.8358 118.205 86.9424 118.952 87.1558 119.656C87.3798 120.349 87.6944 120.963 88.0998 121.496C88.5158 122.019 89.0118 122.435 89.5878 122.744C90.1744 123.043 90.8304 123.192 91.5558 123.192C92.2704 123.192 92.9211 123.037 93.5078 122.728C94.0944 122.419 94.5904 122.003 94.9958 121.48C95.4118 120.947 95.7318 120.328 95.9558 119.624C96.1798 118.92 96.2918 118.173 96.2918 117.384ZM94.9798 117.416C94.9798 118.035 94.8998 118.627 94.7398 119.192C94.5904 119.747 94.3664 120.237 94.0677 120.664C93.7798 121.08 93.4224 121.416 92.9958 121.672C92.5798 121.917 92.1104 122.04 91.5878 122.04C91.0651 122.04 90.5904 121.917 90.1638 121.672C89.7371 121.416 89.3744 121.075 89.0758 120.648C88.7771 120.221 88.5478 119.725 88.3878 119.16C88.2278 118.595 88.1478 118.003 88.1478 117.384C88.1478 116.765 88.2278 116.179 88.3878 115.624C88.5478 115.059 88.7718 114.568 89.0598 114.152C89.3584 113.725 89.7158 113.389 90.1318 113.144C90.5584 112.888 91.0331 112.76 91.5558 112.76C92.0784 112.76 92.5478 112.888 92.9638 113.144C93.3904 113.4 93.7531 113.741 94.0518 114.168C94.3504 114.595 94.5798 115.091 94.7398 115.656C94.8998 116.211 94.9798 116.797 94.9798 117.416Z" fill="black"/>
<path d="M208.512 87.384C208.512 86.6053 208.373 85.8693 208.096 85.176C207.829 84.472 207.445 83.8587 206.944 83.336C206.443 82.8027 205.84 82.3813 205.136 82.072C204.443 81.7627 203.669 81.608 202.816 81.608C201.963 81.608 201.184 81.768 200.48 82.088C199.776 82.3973 199.173 82.8187 198.672 83.352C198.171 83.8853 197.781 84.504 197.504 85.208C197.227 85.9013 197.088 86.6373 197.088 87.416C197.088 88.1947 197.221 88.936 197.488 89.64C197.765 90.3333 198.155 90.9467 198.656 91.48C199.157 92.0027 199.755 92.4187 200.448 92.728C201.152 93.0373 201.931 93.192 202.784 93.192C203.637 93.192 204.416 93.0373 205.12 92.728C205.824 92.408 206.427 91.9813 206.928 91.448C207.429 90.9147 207.819 90.3013 208.096 89.608C208.373 88.904 208.512 88.1627 208.512 87.384ZM207.2 87.416C207.2 88.056 207.088 88.6587 206.864 89.224C206.651 89.7787 206.352 90.264 205.968 90.68C205.584 91.096 205.12 91.4267 204.576 91.672C204.043 91.9067 203.456 92.024 202.816 92.024C202.176 92.024 201.584 91.9013 201.04 91.656C200.507 91.4107 200.043 91.08 199.648 90.664C199.253 90.248 198.944 89.7573 198.72 89.192C198.507 88.6267 198.4 88.024 198.4 87.384C198.4 86.744 198.507 86.1467 198.72 85.592C198.944 85.0267 199.248 84.536 199.632 84.12C200.016 83.704 200.475 83.3787 201.008 83.144C201.552 82.8987 202.144 82.776 202.784 82.776C203.424 82.776 204.011 82.8987 204.544 83.144C205.088 83.3893 205.557 83.72 205.952 84.136C206.347 84.552 206.651 85.0427 206.864 85.608C207.088 86.1733 207.2 86.776 207.2 87.416ZM219.322 88.856C219.322 88.1733 219.21 87.5653 218.986 87.032C218.762 86.4987 218.463 86.0507 218.09 85.688C217.716 85.3147 217.29 85.032 216.81 84.84C216.34 84.648 215.86 84.552 215.37 84.552C214.986 84.552 214.634 84.6053 214.314 84.712C214.004 84.808 213.722 84.9413 213.466 85.112C213.21 85.272 212.975 85.464 212.762 85.688C212.559 85.912 212.372 86.1467 212.202 86.392V84.728H210.97V95.56H212.202V91.416C212.362 91.6507 212.543 91.8747 212.746 92.088C212.959 92.3013 213.194 92.488 213.45 92.648C213.706 92.808 213.994 92.936 214.314 93.032C214.634 93.128 214.986 93.176 215.37 93.176C215.871 93.176 216.356 93.08 216.826 92.888C217.306 92.6853 217.727 92.4027 218.09 92.04C218.463 91.6667 218.762 91.2133 218.986 90.68C219.21 90.1467 219.322 89.5387 219.322 88.856ZM218.058 88.872C218.058 89.3733 217.978 89.8267 217.818 90.232C217.668 90.6267 217.46 90.9627 217.194 91.24C216.938 91.5067 216.628 91.7147 216.266 91.864C215.914 92.0027 215.54 92.072 215.146 92.072C214.762 92.072 214.388 91.9973 214.026 91.848C213.674 91.688 213.354 91.4693 213.066 91.192C212.788 90.9147 212.564 90.5787 212.394 90.184C212.234 89.7787 212.154 89.336 212.154 88.856C212.154 88.376 212.234 87.9387 212.394 87.544C212.564 87.1493 212.788 86.8133 213.066 86.536C213.354 86.2587 213.674 86.0453 214.026 85.896C214.388 85.736 214.762 85.656 215.146 85.656C215.54 85.656 215.914 85.7307 216.266 85.88C216.618 86.0293 216.927 86.248 217.194 86.536C217.46 86.8133 217.668 87.1493 217.818 87.544C217.978 87.9387 218.058 88.3813 218.058 88.872ZM222.331 89.32H228.891C228.901 89.2453 228.907 89.176 228.907 89.112C228.907 89.048 228.907 88.9893 228.907 88.936C228.907 88.328 228.821 87.7573 228.651 87.224C228.48 86.6907 228.229 86.2267 227.899 85.832C227.568 85.4373 227.163 85.128 226.683 84.904C226.203 84.6693 225.659 84.552 225.051 84.552C224.475 84.552 223.941 84.664 223.451 84.888C222.971 85.112 222.555 85.4213 222.203 85.816C221.851 86.2 221.573 86.6587 221.371 87.192C221.179 87.7147 221.083 88.2747 221.083 88.872C221.083 89.512 221.189 90.0987 221.403 90.632C221.627 91.1653 221.925 91.624 222.299 92.008C222.672 92.3813 223.109 92.6747 223.611 92.888C224.112 93.0907 224.645 93.192 225.211 93.192C226 93.192 226.661 93.0533 227.195 92.776C227.728 92.488 228.203 92.1093 228.619 91.64L227.851 90.952C227.509 91.304 227.131 91.5867 226.715 91.8C226.309 92.0133 225.819 92.12 225.243 92.12C224.88 92.12 224.533 92.0613 224.203 91.944C223.872 91.816 223.573 91.6347 223.307 91.4C223.04 91.1547 222.821 90.8613 222.651 90.52C222.48 90.168 222.373 89.768 222.331 89.32ZM222.331 88.408C222.373 88.0027 222.469 87.6293 222.619 87.288C222.768 86.9467 222.96 86.6533 223.195 86.408C223.429 86.152 223.701 85.9547 224.011 85.816C224.32 85.6667 224.656 85.592 225.019 85.592C225.435 85.592 225.797 85.672 226.107 85.832C226.427 85.9813 226.693 86.184 226.907 86.44C227.131 86.696 227.301 86.9947 227.419 87.336C227.547 87.6773 227.627 88.0347 227.659 88.408H222.331ZM232.296 88.264C232.296 87.88 232.354 87.528 232.472 87.208C232.6 86.888 232.776 86.616 233 86.392C233.224 86.1573 233.485 85.9813 233.784 85.864C234.093 85.736 234.424 85.672 234.776 85.672C235.512 85.672 236.077 85.896 236.472 86.344C236.866 86.792 237.064 87.4 237.064 88.168V93H238.296V87.864C238.296 87.3733 238.221 86.9253 238.072 86.52C237.933 86.1147 237.725 85.768 237.448 85.48C237.181 85.1813 236.85 84.952 236.456 84.792C236.072 84.632 235.629 84.552 235.128 84.552C234.413 84.552 233.832 84.712 233.384 85.032C232.936 85.3413 232.573 85.72 232.296 86.168V84.728H231.064V93H232.296V88.264ZM196.448 112.664L196.752 113.688L198.864 113.032V123H200.112V111.72H199.184L196.448 112.664ZM202.47 124.392L202.662 124.952C203.27 124.813 203.718 124.573 204.006 124.232C204.294 123.901 204.438 123.411 204.438 122.76V121.32H202.966V123H203.542C203.574 123.341 203.505 123.619 203.334 123.832C203.164 124.056 202.876 124.243 202.47 124.392ZM206.432 112.952H212.592L207.536 123H208.944L214.032 112.744V111.8H206.432V112.952ZM221.427 112.936L217.891 116.92L218.147 117.672H218.867C219.795 117.672 220.547 117.859 221.123 118.232C221.709 118.605 222.003 119.144 222.003 119.848C222.003 120.179 221.939 120.483 221.811 120.76C221.683 121.027 221.507 121.256 221.283 121.448C221.069 121.64 220.813 121.789 220.515 121.896C220.216 121.992 219.896 122.04 219.555 122.04C218.861 122.04 218.248 121.896 217.715 121.608C217.192 121.32 216.712 120.909 216.275 120.376L215.363 121.192C215.821 121.789 216.397 122.275 217.091 122.648C217.784 123.011 218.6 123.192 219.539 123.192C220.061 123.192 220.547 123.112 220.995 122.952C221.453 122.781 221.848 122.547 222.179 122.248C222.52 121.949 222.787 121.592 222.979 121.176C223.181 120.76 223.283 120.301 223.283 119.8C223.283 119.288 223.181 118.84 222.979 118.456C222.776 118.072 222.504 117.752 222.163 117.496C221.832 117.24 221.443 117.043 220.995 116.904C220.547 116.765 220.077 116.675 219.587 116.632L223.107 112.728V111.8H215.955V112.936H221.427ZM225.881 117.256L226.729 117.816C227.06 117.635 227.412 117.485 227.785 117.368C228.169 117.24 228.601 117.176 229.081 117.176C229.497 117.176 229.876 117.235 230.217 117.352C230.558 117.469 230.852 117.635 231.097 117.848C231.342 118.051 231.529 118.296 231.657 118.584C231.796 118.872 231.865 119.192 231.865 119.544C231.865 119.907 231.796 120.243 231.657 120.552C231.529 120.851 231.348 121.112 231.113 121.336C230.878 121.56 230.59 121.736 230.249 121.864C229.918 121.981 229.556 122.04 229.161 122.04C228.585 122.04 228.03 121.907 227.497 121.64C226.974 121.363 226.468 120.984 225.977 120.504L225.145 121.416C225.657 121.928 226.249 122.355 226.921 122.696C227.604 123.027 228.345 123.192 229.145 123.192C229.732 123.192 230.27 123.107 230.761 122.936C231.252 122.755 231.673 122.504 232.025 122.184C232.377 121.853 232.649 121.464 232.841 121.016C233.044 120.557 233.145 120.051 233.145 119.496C233.145 118.963 233.044 118.483 232.841 118.056C232.649 117.629 232.377 117.272 232.025 116.984C231.673 116.685 231.262 116.456 230.793 116.296C230.324 116.136 229.817 116.056 229.273 116.056C228.804 116.056 228.398 116.104 228.057 116.2C227.726 116.285 227.396 116.403 227.065 116.552L227.305 112.968H232.649V111.8H226.201L225.881 117.256ZM236.798 123V121.32H235.326V123H236.798ZM248.151 117.384C248.151 116.595 248.039 115.853 247.815 115.16C247.602 114.456 247.287 113.843 246.871 113.32C246.466 112.787 245.97 112.371 245.383 112.072C244.807 111.763 244.162 111.608 243.447 111.608C242.722 111.608 242.066 111.763 241.479 112.072C240.892 112.381 240.391 112.803 239.975 113.336C239.57 113.859 239.255 114.472 239.031 115.176C238.807 115.88 238.695 116.627 238.695 117.416C238.695 118.205 238.802 118.952 239.015 119.656C239.239 120.349 239.554 120.963 239.959 121.496C240.375 122.019 240.871 122.435 241.447 122.744C242.034 123.043 242.69 123.192 243.415 123.192C244.13 123.192 244.78 123.037 245.367 122.728C245.954 122.419 246.45 122.003 246.855 121.48C247.271 120.947 247.591 120.328 247.815 119.624C248.039 118.92 248.151 118.173 248.151 117.384ZM246.839 117.416C246.839 118.035 246.759 118.627 246.599 119.192C246.45 119.747 246.226 120.237 245.927 120.664C245.639 121.08 245.282 121.416 244.855 121.672C244.439 121.917 243.97 122.04 243.447 122.04C242.924 122.04 242.45 121.917 242.023 121.672C241.596 121.416 241.234 121.075 240.935 120.648C240.636 120.221 240.407 119.725 240.247 119.16C240.087 118.595 240.007 118.003 240.007 117.384C240.007 116.765 240.087 116.179 240.247 115.624C240.407 115.059 240.631 114.568 240.919 114.152C241.218 113.725 241.575 113.389 241.991 113.144C242.418 112.888 242.892 112.76 243.415 112.76C243.938 112.76 244.407 112.888 244.823 113.144C245.25 113.4 245.612 113.741 245.911 114.168C246.21 114.595 246.439 115.091 246.599 115.656C246.759 116.211 246.839 116.797 246.839 117.416ZM259.589 117.384C259.589 116.595 259.477 115.853 259.253 115.16C259.039 114.456 258.725 113.843 258.309 113.32C257.903 112.787 257.407 112.371 256.821 112.072C256.245 111.763 255.599 111.608 254.885 111.608C254.159 111.608 253.503 111.763 252.917 112.072C252.33 112.381 251.829 112.803 251.413 113.336C251.007 113.859 250.693 114.472 250.469 115.176C250.245 115.88 250.133 116.627 250.133 117.416C250.133 118.205 250.239 118.952 250.453 119.656C250.677 120.349 250.991 120.963 251.397 121.496C251.813 122.019 252.309 122.435 252.885 122.744C253.471 123.043 254.127 123.192 254.853 123.192C255.567 123.192 256.218 123.037 256.805 122.728C257.391 122.419 257.887 122.003 258.293 121.48C258.709 120.947 259.029 120.328 259.253 119.624C259.477 118.92 259.589 118.173 259.589 117.384ZM258.277 117.416C258.277 118.035 258.197 118.627 258.037 119.192C257.887 119.747 257.663 120.237 257.365 120.664C257.077 121.08 256.719 121.416 256.293 121.672C255.877 121.917 255.407 122.04 254.885 122.04C254.362 122.04 253.887 121.917 253.461 121.672C253.034 121.416 252.671 121.075 252.373 120.648C252.074 120.221 251.845 119.725 251.685 119.16C251.525 118.595 251.445 118.003 251.445 117.384C251.445 116.765 251.525 116.179 251.685 115.624C251.845 115.059 252.069 114.568 252.357 114.152C252.655 113.725 253.013 113.389 253.429 113.144C253.855 112.888 254.33 112.76 254.853 112.76C255.375 112.76 255.845 112.888 256.261 113.144C256.687 113.4 257.05 113.741 257.349 114.168C257.647 114.595 257.877 115.091 258.037 115.656C258.197 116.211 258.277 116.797 258.277 117.416Z" fill="black"/>
<path d="M315.016 91.448L311.032 81.8H309.624L314.44 93.08H315.56L320.376 81.8H319.016L315.016 91.448ZM329.363 88.856C329.363 88.2693 329.256 87.7147 329.043 87.192C328.83 86.6693 328.531 86.216 328.147 85.832C327.763 85.4373 327.304 85.128 326.771 84.904C326.248 84.6693 325.678 84.552 325.059 84.552C324.43 84.552 323.848 84.6693 323.315 84.904C322.792 85.128 322.339 85.4373 321.955 85.832C321.571 86.2267 321.272 86.6907 321.059 87.224C320.846 87.7467 320.739 88.3013 320.739 88.888C320.739 89.4747 320.846 90.0293 321.059 90.552C321.272 91.0747 321.571 91.5333 321.955 91.928C322.339 92.312 322.792 92.6213 323.315 92.856C323.838 93.08 324.408 93.192 325.027 93.192C325.646 93.192 326.222 93.08 326.755 92.856C327.288 92.6213 327.747 92.3067 328.131 91.912C328.515 91.5173 328.814 91.0587 329.027 90.536C329.251 90.0027 329.363 89.4427 329.363 88.856ZM328.099 88.888C328.099 89.336 328.024 89.7573 327.875 90.152C327.726 90.536 327.518 90.872 327.251 91.16C326.984 91.448 326.664 91.6773 326.291 91.848C325.918 92.008 325.507 92.088 325.059 92.088C324.622 92.088 324.216 92.0027 323.843 91.832C323.47 91.6613 323.144 91.432 322.867 91.144C322.6 90.856 322.387 90.5147 322.227 90.12C322.078 89.7253 322.003 89.304 322.003 88.856C322.003 88.408 322.078 87.992 322.227 87.608C322.376 87.2133 322.579 86.872 322.835 86.584C323.102 86.2853 323.422 86.056 323.795 85.896C324.168 85.7253 324.579 85.64 325.027 85.64C325.464 85.64 325.87 85.7253 326.243 85.896C326.616 86.0667 326.942 86.3013 327.219 86.6C327.496 86.888 327.71 87.2293 327.859 87.624C328.019 88.0187 328.099 88.44 328.099 88.888ZM332.939 93V81.32H331.707V93H332.939ZM341.67 89.464C341.67 89.848 341.606 90.2 341.478 90.52C341.35 90.84 341.174 91.1173 340.95 91.352C340.737 91.576 340.475 91.752 340.166 91.88C339.867 91.9973 339.542 92.056 339.19 92.056C338.454 92.056 337.889 91.832 337.494 91.384C337.099 90.936 336.902 90.328 336.902 89.56V84.728H335.67V89.864C335.67 90.3547 335.739 90.8027 335.878 91.208C336.027 91.6133 336.235 91.9653 336.502 92.264C336.779 92.552 337.11 92.776 337.494 92.936C337.889 93.096 338.337 93.176 338.838 93.176C339.553 93.176 340.134 93.0213 340.582 92.712C341.03 92.392 341.393 92.008 341.67 91.56V93H342.886V84.728H341.67V89.464ZM352.217 86.2C351.993 85.7307 351.663 85.3413 351.225 85.032C350.788 84.712 350.233 84.552 349.561 84.552C349.209 84.552 348.9 84.5947 348.633 84.68C348.367 84.7653 348.127 84.8827 347.913 85.032C347.7 85.1707 347.508 85.336 347.337 85.528C347.177 85.72 347.028 85.9173 346.889 86.12V84.728H345.657V93H346.889V88.28C346.889 87.896 346.948 87.5493 347.065 87.24C347.183 86.92 347.343 86.6427 347.545 86.408C347.759 86.1733 348.004 85.992 348.281 85.864C348.559 85.736 348.863 85.672 349.193 85.672C349.855 85.672 350.372 85.8907 350.745 86.328C351.129 86.7547 351.321 87.3573 351.321 88.136V93H352.537V88.232C352.537 87.8267 352.596 87.464 352.713 87.144C352.841 86.824 353.007 86.5573 353.209 86.344C353.423 86.12 353.668 85.9547 353.945 85.848C354.223 85.7307 354.516 85.672 354.825 85.672C355.497 85.672 356.02 85.8907 356.393 86.328C356.777 86.7547 356.969 87.368 356.969 88.168V93H358.201V87.88C358.201 86.8453 357.929 86.0347 357.385 85.448C356.841 84.8507 356.089 84.552 355.129 84.552C354.767 84.552 354.436 84.5947 354.137 84.68C353.849 84.7653 353.588 84.8827 353.353 85.032C353.119 85.1813 352.905 85.3573 352.713 85.56C352.532 85.7627 352.367 85.976 352.217 86.2ZM361.612 89.32H368.172C368.183 89.2453 368.188 89.176 368.188 89.112C368.188 89.048 368.188 88.9893 368.188 88.936C368.188 88.328 368.103 87.7573 367.932 87.224C367.761 86.6907 367.511 86.2267 367.18 85.832C366.849 85.4373 366.444 85.128 365.964 84.904C365.484 84.6693 364.94 84.552 364.332 84.552C363.756 84.552 363.223 84.664 362.732 84.888C362.252 85.112 361.836 85.4213 361.484 85.816C361.132 86.2 360.855 86.6587 360.652 87.192C360.46 87.7147 360.364 88.2747 360.364 88.872C360.364 89.512 360.471 90.0987 360.684 90.632C360.908 91.1653 361.207 91.624 361.58 92.008C361.953 92.3813 362.391 92.6747 362.892 92.888C363.393 93.0907 363.927 93.192 364.492 93.192C365.281 93.192 365.943 93.0533 366.476 92.776C367.009 92.488 367.484 92.1093 367.9 91.64L367.132 90.952C366.791 91.304 366.412 91.5867 365.996 91.8C365.591 92.0133 365.1 92.12 364.524 92.12C364.161 92.12 363.815 92.0613 363.484 91.944C363.153 91.816 362.855 91.6347 362.588 91.4C362.321 91.1547 362.103 90.8613 361.932 90.52C361.761 90.168 361.655 89.768 361.612 89.32ZM361.612 88.408C361.655 88.0027 361.751 87.6293 361.9 87.288C362.049 86.9467 362.241 86.6533 362.476 86.408C362.711 86.152 362.983 85.9547 363.292 85.816C363.601 85.6667 363.937 85.592 364.3 85.592C364.716 85.592 365.079 85.672 365.388 85.832C365.708 85.9813 365.975 86.184 366.188 86.44C366.412 86.696 366.583 86.9947 366.7 87.336C366.828 87.6773 366.908 88.0347 366.94 88.408H361.612ZM317.944 112.888C317.453 112.483 316.947 112.168 316.424 111.944C315.901 111.72 315.304 111.608 314.632 111.608C313.896 111.608 313.24 111.768 312.664 112.088C312.088 112.397 311.597 112.829 311.192 113.384C310.797 113.928 310.493 114.573 310.28 115.32C310.077 116.056 309.976 116.851 309.976 117.704C309.976 118.28 310.008 118.792 310.072 119.24C310.136 119.677 310.227 120.067 310.344 120.408C310.461 120.749 310.605 121.053 310.776 121.32C310.957 121.587 311.16 121.832 311.384 122.056C311.736 122.408 312.157 122.685 312.648 122.888C313.149 123.091 313.709 123.192 314.328 123.192C314.893 123.192 315.421 123.101 315.912 122.92C316.403 122.728 316.824 122.467 317.176 122.136C317.539 121.805 317.821 121.411 318.024 120.952C318.237 120.493 318.344 119.992 318.344 119.448C318.344 118.925 318.237 118.451 318.024 118.024C317.821 117.597 317.544 117.235 317.192 116.936C316.84 116.627 316.429 116.392 315.96 116.232C315.491 116.072 314.995 115.992 314.472 115.992C314.067 115.992 313.699 116.04 313.368 116.136C313.048 116.232 312.755 116.36 312.488 116.52C312.232 116.669 312.003 116.851 311.8 117.064C311.608 117.267 311.437 117.48 311.288 117.704C311.288 116.979 311.363 116.317 311.512 115.72C311.661 115.112 311.875 114.589 312.152 114.152C312.44 113.715 312.787 113.373 313.192 113.128C313.597 112.883 314.056 112.76 314.568 112.76C315.08 112.76 315.544 112.856 315.96 113.048C316.376 113.24 316.792 113.512 317.208 113.864L317.944 112.888ZM317.048 119.496C317.048 119.859 316.984 120.2 316.856 120.52C316.728 120.829 316.547 121.101 316.312 121.336C316.077 121.56 315.795 121.741 315.464 121.88C315.133 122.008 314.76 122.072 314.344 122.072C313.928 122.072 313.544 122.008 313.192 121.88C312.851 121.752 312.552 121.576 312.296 121.352C312.051 121.128 311.859 120.861 311.72 120.552C311.581 120.243 311.512 119.907 311.512 119.544C311.512 119.224 311.576 118.92 311.704 118.632C311.843 118.333 312.035 118.072 312.28 117.848C312.525 117.613 312.819 117.427 313.16 117.288C313.512 117.149 313.896 117.08 314.312 117.08C314.717 117.08 315.085 117.144 315.416 117.272C315.757 117.389 316.045 117.555 316.28 117.768C316.525 117.981 316.712 118.237 316.84 118.536C316.979 118.824 317.048 119.144 317.048 119.496ZM320.943 117.256L321.791 117.816C322.122 117.635 322.474 117.485 322.847 117.368C323.231 117.24 323.663 117.176 324.143 117.176C324.559 117.176 324.938 117.235 325.279 117.352C325.621 117.469 325.914 117.635 326.159 117.848C326.405 118.051 326.591 118.296 326.719 118.584C326.858 118.872 326.927 119.192 326.927 119.544C326.927 119.907 326.858 120.243 326.719 120.552C326.591 120.851 326.41 121.112 326.175 121.336C325.941 121.56 325.653 121.736 325.311 121.864C324.981 121.981 324.618 122.04 324.223 122.04C323.647 122.04 323.093 121.907 322.559 121.64C322.037 121.363 321.53 120.984 321.039 120.504L320.207 121.416C320.719 121.928 321.311 122.355 321.983 122.696C322.666 123.027 323.407 123.192 324.207 123.192C324.794 123.192 325.333 123.107 325.823 122.936C326.314 122.755 326.735 122.504 327.087 122.184C327.439 121.853 327.711 121.464 327.903 121.016C328.106 120.557 328.207 120.051 328.207 119.496C328.207 118.963 328.106 118.483 327.903 118.056C327.711 117.629 327.439 117.272 327.087 116.984C326.735 116.685 326.325 116.456 325.855 116.296C325.386 116.136 324.879 116.056 324.335 116.056C323.866 116.056 323.461 116.104 323.119 116.2C322.789 116.285 322.458 116.403 322.127 116.552L322.367 112.968H327.711V111.8H321.263L320.943 117.256ZM329.892 124.392L330.084 124.952C330.692 124.813 331.14 124.573 331.428 124.232C331.716 123.901 331.86 123.411 331.86 122.76V121.32H330.388V123H330.964C330.996 123.341 330.927 123.619 330.756 123.832C330.586 124.056 330.298 124.243 329.892 124.392ZM332.729 112.664L333.033 113.688L335.145 113.032V123H336.393V111.72H335.465L332.729 112.664ZM339.6 117.256L340.448 117.816C340.778 117.635 341.13 117.485 341.504 117.368C341.888 117.24 342.32 117.176 342.8 117.176C343.216 117.176 343.594 117.235 343.936 117.352C344.277 117.469 344.57 117.635 344.816 117.848C345.061 118.051 345.248 118.296 345.376 118.584C345.514 118.872 345.584 119.192 345.584 119.544C345.584 119.907 345.514 120.243 345.376 120.552C345.248 120.851 345.066 121.112 344.832 121.336C344.597 121.56 344.309 121.736 343.968 121.864C343.637 121.981 343.274 122.04 342.88 122.04C342.304 122.04 341.749 121.907 341.216 121.64C340.693 121.363 340.186 120.984 339.696 120.504L338.864 121.416C339.376 121.928 339.968 122.355 340.64 122.696C341.322 123.027 342.064 123.192 342.864 123.192C343.45 123.192 343.989 123.107 344.48 122.936C344.97 122.755 345.392 122.504 345.744 122.184C346.096 121.853 346.368 121.464 346.56 121.016C346.762 120.557 346.864 120.051 346.864 119.496C346.864 118.963 346.762 118.483 346.56 118.056C346.368 117.629 346.096 117.272 345.744 116.984C345.392 116.685 344.981 116.456 344.512 116.296C344.042 116.136 343.536 116.056 342.992 116.056C342.522 116.056 342.117 116.104 341.776 116.2C341.445 116.285 341.114 116.403 340.784 116.552L341.024 112.968H346.368V111.8H339.92L339.6 117.256ZM348.416 112.952H354.576L349.52 123H350.928L356.016 112.744V111.8H348.416V112.952ZM356.002 124.392L356.194 124.952C356.802 124.813 357.25 124.573 357.538 124.232C357.826 123.901 357.97 123.411 357.97 122.76V121.32H356.498V123H357.074C357.106 123.341 357.036 123.619 356.866 123.832C356.695 124.056 356.407 124.243 356.002 124.392ZM364.1 112.776C364.398 112.776 364.686 112.829 364.964 112.936C365.241 113.032 365.481 113.176 365.684 113.368C365.886 113.549 366.046 113.773 366.164 114.04C366.292 114.296 366.356 114.589 366.356 114.92C366.356 115.197 366.313 115.469 366.228 115.736C366.153 115.992 366.02 116.259 365.828 116.536C365.646 116.803 365.406 117.091 365.108 117.4C364.809 117.709 364.446 118.056 364.02 118.44L359.956 122.024V123H367.78V121.848H361.844L364.836 119.192C365.326 118.765 365.748 118.376 366.1 118.024C366.452 117.661 366.745 117.315 366.98 116.984C367.214 116.643 367.385 116.301 367.492 115.96C367.609 115.619 367.668 115.24 367.668 114.824C367.668 114.365 367.582 113.944 367.411 113.56C367.241 113.165 367.001 112.829 366.692 112.552C366.382 112.264 366.014 112.04 365.588 111.88C365.172 111.72 364.708 111.64 364.196 111.64C363.705 111.64 363.262 111.693 362.868 111.8C362.484 111.907 362.132 112.061 361.812 112.264C361.502 112.467 361.214 112.717 360.948 113.016C360.681 113.315 360.42 113.651 360.164 114.024L361.092 114.696C361.54 114.067 361.993 113.592 362.452 113.272C362.91 112.941 363.46 112.776 364.1 112.776ZM379.214 117.384C379.214 116.595 379.102 115.853 378.878 115.16C378.664 114.456 378.35 113.843 377.934 113.32C377.528 112.787 377.032 112.371 376.446 112.072C375.87 111.763 375.224 111.608 374.51 111.608C373.784 111.608 373.128 111.763 372.542 112.072C371.955 112.381 371.454 112.803 371.038 113.336C370.632 113.859 370.318 114.472 370.094 115.176C369.87 115.88 369.758 116.627 369.758 117.416C369.758 118.205 369.864 118.952 370.078 119.656C370.302 120.349 370.616 120.963 371.022 121.496C371.438 122.019 371.934 122.435 372.51 122.744C373.096 123.043 373.752 123.192 374.478 123.192C375.192 123.192 375.843 123.037 376.43 122.728C377.016 122.419 377.512 122.003 377.918 121.48C378.334 120.947 378.654 120.328 378.878 119.624C379.102 118.92 379.214 118.173 379.214 117.384ZM377.902 117.416C377.902 118.035 377.822 118.627 377.662 119.192C377.512 119.747 377.288 120.237 376.99 120.664C376.702 121.08 376.344 121.416 375.918 121.672C375.502 121.917 375.032 122.04 374.51 122.04C373.987 122.04 373.512 121.917 373.086 121.672C372.659 121.416 372.296 121.075 371.998 120.648C371.699 120.221 371.47 119.725 371.31 119.16C371.15 118.595 371.07 118.003 371.07 117.384C371.07 116.765 371.15 116.179 371.31 115.624C371.47 115.059 371.694 114.568 371.982 114.152C372.28 113.725 372.638 113.389 373.054 113.144C373.48 112.888 373.955 112.76 374.478 112.76C375 112.76 375.47 112.888 375.886 113.144C376.312 113.4 376.675 113.741 376.974 114.168C377.272 114.595 377.502 115.091 377.662 115.656C377.822 116.211 377.902 116.797 377.902 117.416ZM390.651 117.384C390.651 116.595 390.539 115.853 390.315 115.16C390.102 114.456 389.787 113.843 389.371 113.32C388.966 112.787 388.47 112.371 387.883 112.072C387.307 111.763 386.662 111.608 385.947 111.608C385.222 111.608 384.566 111.763 383.979 112.072C383.392 112.381 382.891 112.803 382.475 113.336C382.07 113.859 381.755 114.472 381.531 115.176C381.307 115.88 381.195 116.627 381.195 117.416C381.195 118.205 381.302 118.952 381.515 119.656C381.739 120.349 382.054 120.963 382.459 121.496C382.875 122.019 383.371 122.435 383.947 122.744C384.534 123.043 385.19 123.192 385.915 123.192C386.63 123.192 387.28 123.037 387.867 122.728C388.454 122.419 388.95 122.003 389.355 121.48C389.771 120.947 390.091 120.328 390.315 119.624C390.539 118.92 390.651 118.173 390.651 117.384ZM389.339 117.416C389.339 118.035 389.259 118.627 389.099 119.192C388.95 119.747 388.726 120.237 388.427 120.664C388.139 121.08 387.782 121.416 387.355 121.672C386.939 121.917 386.47 122.04 385.947 122.04C385.424 122.04 384.95 121.917 384.523 121.672C384.096 121.416 383.734 121.075 383.435 120.648C383.136 120.221 382.907 119.725 382.747 119.16C382.587 118.595 382.507 118.003 382.507 117.384C382.507 116.765 382.587 116.179 382.747 115.624C382.907 115.059 383.131 114.568 383.419 114.152C383.718 113.725 384.075 113.389 384.491 113.144C384.918 112.888 385.392 112.76 385.915 112.76C386.438 112.76 386.907 112.888 387.323 113.144C387.75 113.4 388.112 113.741 388.411 114.168C388.71 114.595 388.939 115.091 389.099 115.656C389.259 116.211 389.339 116.797 389.339 117.416Z" fill="black"/>
<path d="M446.912 81.72H445.728L440.624 93H441.92L443.248 90.04H449.344L450.656 93H452.016L446.912 81.72ZM448.848 88.904H443.744L446.304 83.192L448.848 88.904ZM456.329 91.592L453.545 84.728H452.185L455.769 93.064H456.857L460.457 84.728H459.129L456.329 91.592ZM469.857 91.56V84.728H468.625V86.216C468.455 85.992 468.263 85.7787 468.049 85.576C467.836 85.3733 467.596 85.1973 467.329 85.048C467.073 84.8987 466.78 84.7813 466.449 84.696C466.129 84.6 465.777 84.552 465.393 84.552C464.903 84.552 464.423 84.6427 463.953 84.824C463.484 85.0053 463.068 85.2667 462.705 85.608C462.343 85.9387 462.049 86.3493 461.825 86.84C461.612 87.32 461.505 87.864 461.505 88.472C461.505 89.08 461.612 89.624 461.825 90.104C462.049 90.584 462.343 90.9947 462.705 91.336C463.068 91.6667 463.479 91.9227 463.937 92.104C464.407 92.2747 464.892 92.36 465.393 92.36C466.151 92.36 466.791 92.1893 467.313 91.848C467.836 91.5067 468.279 91.096 468.641 90.616V91.592C468.641 92.5627 468.369 93.2933 467.825 93.784C467.281 94.2853 466.551 94.536 465.633 94.536C465.036 94.536 464.476 94.4453 463.953 94.264C463.431 94.0827 462.929 93.8213 462.449 93.48L461.889 94.44C462.444 94.824 463.036 95.112 463.665 95.304C464.295 95.496 464.956 95.592 465.649 95.592C466.289 95.592 466.865 95.5067 467.377 95.336C467.9 95.1653 468.343 94.9093 468.705 94.568C469.079 94.2373 469.361 93.8213 469.553 93.32C469.756 92.8187 469.857 92.232 469.857 91.56ZM468.673 88.456C468.673 88.8827 468.588 89.272 468.417 89.624C468.247 89.9653 468.017 90.2587 467.729 90.504C467.452 90.7493 467.132 90.9413 466.769 91.08C466.407 91.208 466.028 91.272 465.633 91.272C465.249 91.272 464.881 91.208 464.529 91.08C464.188 90.9413 463.884 90.7493 463.617 90.504C463.361 90.248 463.153 89.9493 462.993 89.608C462.844 89.256 462.769 88.8667 462.769 88.44C462.769 88.0133 462.844 87.6293 462.993 87.288C463.143 86.936 463.345 86.6373 463.601 86.392C463.868 86.1467 464.172 85.96 464.513 85.832C464.865 85.704 465.239 85.64 465.633 85.64C466.028 85.64 466.407 85.7093 466.769 85.848C467.132 85.976 467.452 86.1627 467.729 86.408C468.017 86.6533 468.247 86.952 468.417 87.304C468.588 87.6453 468.673 88.0293 468.673 88.456ZM473.938 93V91.32H472.466V93H473.938ZM485.969 91.448L481.985 81.8H480.577L485.393 93.08H486.513L491.329 81.8H489.969L485.969 91.448ZM500.316 88.856C500.316 88.2693 500.209 87.7147 499.996 87.192C499.783 86.6693 499.484 86.216 499.1 85.832C498.716 85.4373 498.257 85.128 497.724 84.904C497.201 84.6693 496.631 84.552 496.012 84.552C495.383 84.552 494.801 84.6693 494.268 84.904C493.745 85.128 493.292 85.4373 492.908 85.832C492.524 86.2267 492.225 86.6907 492.012 87.224C491.799 87.7467 491.692 88.3013 491.692 88.888C491.692 89.4747 491.799 90.0293 492.012 90.552C492.225 91.0747 492.524 91.5333 492.908 91.928C493.292 92.312 493.745 92.6213 494.268 92.856C494.791 93.08 495.361 93.192 495.98 93.192C496.599 93.192 497.175 93.08 497.708 92.856C498.241 92.6213 498.7 92.3067 499.084 91.912C499.468 91.5173 499.767 91.0587 499.98 90.536C500.204 90.0027 500.316 89.4427 500.316 88.856ZM499.052 88.888C499.052 89.336 498.977 89.7573 498.828 90.152C498.679 90.536 498.471 90.872 498.204 91.16C497.937 91.448 497.617 91.6773 497.244 91.848C496.871 92.008 496.46 92.088 496.012 92.088C495.575 92.088 495.169 92.0027 494.796 91.832C494.423 91.6613 494.097 91.432 493.82 91.144C493.553 90.856 493.34 90.5147 493.18 90.12C493.031 89.7253 492.956 89.304 492.956 88.856C492.956 88.408 493.031 87.992 493.18 87.608C493.329 87.2133 493.532 86.872 493.788 86.584C494.055 86.2853 494.375 86.056 494.748 85.896C495.121 85.7253 495.532 85.64 495.98 85.64C496.417 85.64 496.823 85.7253 497.196 85.896C497.569 86.0667 497.895 86.3013 498.172 86.6C498.449 86.888 498.663 87.2293 498.812 87.624C498.972 88.0187 499.052 88.44 499.052 88.888ZM503.892 93V81.32H502.66V93H503.892ZM512.623 89.464C512.623 89.848 512.559 90.2 512.431 90.52C512.303 90.84 512.127 91.1173 511.903 91.352C511.69 91.576 511.428 91.752 511.119 91.88C510.82 91.9973 510.495 92.056 510.143 92.056C509.407 92.056 508.842 91.832 508.447 91.384C508.052 90.936 507.855 90.328 507.855 89.56V84.728H506.623V89.864C506.623 90.3547 506.692 90.8027 506.831 91.208C506.98 91.6133 507.188 91.9653 507.455 92.264C507.732 92.552 508.063 92.776 508.447 92.936C508.842 93.096 509.29 93.176 509.791 93.176C510.506 93.176 511.087 93.0213 511.535 92.712C511.983 92.392 512.346 92.008 512.623 91.56V93H513.839V84.728H512.623V89.464ZM523.17 86.2C522.946 85.7307 522.616 85.3413 522.178 85.032C521.741 84.712 521.186 84.552 520.514 84.552C520.162 84.552 519.853 84.5947 519.586 84.68C519.32 84.7653 519.08 84.8827 518.866 85.032C518.653 85.1707 518.461 85.336 518.29 85.528C518.13 85.72 517.981 85.9173 517.842 86.12V84.728H516.61V93H517.842V88.28C517.842 87.896 517.901 87.5493 518.018 87.24C518.136 86.92 518.296 86.6427 518.498 86.408C518.712 86.1733 518.957 85.992 519.234 85.864C519.512 85.736 519.816 85.672 520.146 85.672C520.808 85.672 521.325 85.8907 521.698 86.328C522.082 86.7547 522.274 87.3573 522.274 88.136V93H523.49V88.232C523.49 87.8267 523.549 87.464 523.666 87.144C523.794 86.824 523.96 86.5573 524.162 86.344C524.376 86.12 524.621 85.9547 524.898 85.848C525.176 85.7307 525.469 85.672 525.778 85.672C526.45 85.672 526.973 85.8907 527.346 86.328C527.73 86.7547 527.922 87.368 527.922 88.168V93H529.154V87.88C529.154 86.8453 528.882 86.0347 528.338 85.448C527.794 84.8507 527.042 84.552 526.082 84.552C525.72 84.552 525.389 84.5947 525.09 84.68C524.802 84.7653 524.541 84.8827 524.306 85.032C524.072 85.1813 523.858 85.3573 523.666 85.56C523.485 85.7627 523.32 85.976 523.17 86.2ZM532.565 89.32H539.125C539.136 89.2453 539.141 89.176 539.141 89.112C539.141 89.048 539.141 88.9893 539.141 88.936C539.141 88.328 539.056 87.7573 538.885 87.224C538.714 86.6907 538.464 86.2267 538.133 85.832C537.802 85.4373 537.397 85.128 536.917 84.904C536.437 84.6693 535.893 84.552 535.285 84.552C534.709 84.552 534.176 84.664 533.685 84.888C533.205 85.112 532.789 85.4213 532.437 85.816C532.085 86.2 531.808 86.6587 531.605 87.192C531.413 87.7147 531.317 88.2747 531.317 88.872C531.317 89.512 531.424 90.0987 531.637 90.632C531.861 91.1653 532.16 91.624 532.533 92.008C532.906 92.3813 533.344 92.6747 533.845 92.888C534.346 93.0907 534.88 93.192 535.445 93.192C536.234 93.192 536.896 93.0533 537.429 92.776C537.962 92.488 538.437 92.1093 538.853 91.64L538.085 90.952C537.744 91.304 537.365 91.5867 536.949 91.8C536.544 92.0133 536.053 92.12 535.477 92.12C535.114 92.12 534.768 92.0613 534.437 91.944C534.106 91.816 533.808 91.6347 533.541 91.4C533.274 91.1547 533.056 90.8613 532.885 90.52C532.714 90.168 532.608 89.768 532.565 89.32ZM532.565 88.408C532.608 88.0027 532.704 87.6293 532.853 87.288C533.002 86.9467 533.194 86.6533 533.429 86.408C533.664 86.152 533.936 85.9547 534.245 85.816C534.554 85.6667 534.89 85.592 535.253 85.592C535.669 85.592 536.032 85.672 536.341 85.832C536.661 85.9813 536.928 86.184 537.141 86.44C537.365 86.696 537.536 86.9947 537.653 87.336C537.781 87.6773 537.861 88.0347 537.893 88.408H532.565ZM448.944 112.888C448.453 112.483 447.947 112.168 447.424 111.944C446.901 111.72 446.304 111.608 445.632 111.608C444.896 111.608 444.24 111.768 443.664 112.088C443.088 112.397 442.597 112.829 442.192 113.384C441.797 113.928 441.493 114.573 441.28 115.32C441.077 116.056 440.976 116.851 440.976 117.704C440.976 118.28 441.008 118.792 441.072 119.24C441.136 119.677 441.227 120.067 441.344 120.408C441.461 120.749 441.605 121.053 441.776 121.32C441.957 121.587 442.16 121.832 442.384 122.056C442.736 122.408 443.157 122.685 443.648 122.888C444.149 123.091 444.709 123.192 445.328 123.192C445.893 123.192 446.421 123.101 446.912 122.92C447.403 122.728 447.824 122.467 448.176 122.136C448.539 121.805 448.821 121.411 449.024 120.952C449.237 120.493 449.344 119.992 449.344 119.448C449.344 118.925 449.237 118.451 449.024 118.024C448.821 117.597 448.544 117.235 448.192 116.936C447.84 116.627 447.429 116.392 446.96 116.232C446.491 116.072 445.995 115.992 445.472 115.992C445.067 115.992 444.699 116.04 444.368 116.136C444.048 116.232 443.755 116.36 443.488 116.52C443.232 116.669 443.003 116.851 442.8 117.064C442.608 117.267 442.437 117.48 442.288 117.704C442.288 116.979 442.363 116.317 442.512 115.72C442.661 115.112 442.875 114.589 443.152 114.152C443.44 113.715 443.787 113.373 444.192 113.128C444.597 112.883 445.056 112.76 445.568 112.76C446.08 112.76 446.544 112.856 446.96 113.048C447.376 113.24 447.792 113.512 448.208 113.864L448.944 112.888ZM448.048 119.496C448.048 119.859 447.984 120.2 447.856 120.52C447.728 120.829 447.547 121.101 447.312 121.336C447.077 121.56 446.795 121.741 446.464 121.88C446.133 122.008 445.76 122.072 445.344 122.072C444.928 122.072 444.544 122.008 444.192 121.88C443.851 121.752 443.552 121.576 443.296 121.352C443.051 121.128 442.859 120.861 442.72 120.552C442.581 120.243 442.512 119.907 442.512 119.544C442.512 119.224 442.576 118.92 442.704 118.632C442.843 118.333 443.035 118.072 443.28 117.848C443.525 117.613 443.819 117.427 444.16 117.288C444.512 117.149 444.896 117.08 445.312 117.08C445.717 117.08 446.085 117.144 446.416 117.272C446.757 117.389 447.045 117.555 447.28 117.768C447.525 117.981 447.712 118.237 447.84 118.536C447.979 118.824 448.048 119.144 448.048 119.496ZM459.607 119.96C459.607 119.288 459.389 118.723 458.951 118.264C458.525 117.805 457.975 117.453 457.303 117.208C457.559 117.091 457.805 116.952 458.039 116.792C458.274 116.621 458.477 116.435 458.647 116.232C458.829 116.019 458.967 115.779 459.063 115.512C459.17 115.245 459.223 114.947 459.223 114.616C459.223 114.179 459.117 113.779 458.903 113.416C458.701 113.053 458.423 112.739 458.071 112.472C457.73 112.205 457.325 112.003 456.855 111.864C456.397 111.715 455.911 111.64 455.399 111.64C454.887 111.64 454.397 111.715 453.927 111.864C453.469 112.003 453.063 112.205 452.711 112.472C452.37 112.739 452.093 113.053 451.879 113.416C451.677 113.779 451.575 114.179 451.575 114.616C451.575 114.947 451.623 115.245 451.719 115.512C451.826 115.779 451.965 116.019 452.135 116.232C452.317 116.435 452.525 116.621 452.759 116.792C452.994 116.952 453.239 117.091 453.495 117.208C452.823 117.453 452.269 117.811 451.831 118.28C451.405 118.739 451.191 119.304 451.191 119.976C451.191 120.445 451.298 120.877 451.511 121.272C451.725 121.667 452.018 122.003 452.391 122.28C452.775 122.557 453.223 122.776 453.735 122.936C454.247 123.085 454.802 123.16 455.399 123.16C455.997 123.16 456.551 123.085 457.063 122.936C457.575 122.776 458.018 122.557 458.391 122.28C458.775 122.003 459.074 121.667 459.287 121.272C459.501 120.877 459.607 120.44 459.607 119.96ZM457.959 114.696C457.959 115.005 457.89 115.288 457.751 115.544C457.623 115.789 457.442 116.003 457.207 116.184C456.983 116.365 456.711 116.509 456.391 116.616C456.082 116.712 455.751 116.76 455.399 116.76C455.047 116.76 454.711 116.712 454.391 116.616C454.082 116.509 453.81 116.365 453.575 116.184C453.351 116.003 453.17 115.789 453.031 115.544C452.903 115.288 452.839 115.005 452.839 114.696C452.839 114.408 452.903 114.147 453.031 113.912C453.159 113.677 453.335 113.475 453.559 113.304C453.794 113.123 454.066 112.984 454.375 112.888C454.695 112.792 455.037 112.744 455.399 112.744C455.762 112.744 456.098 112.792 456.407 112.888C456.727 112.984 456.999 113.123 457.223 113.304C457.458 113.475 457.639 113.683 457.767 113.928C457.895 114.163 457.959 114.419 457.959 114.696ZM458.327 119.944C458.327 120.232 458.258 120.504 458.119 120.76C457.991 121.016 457.799 121.24 457.543 121.432C457.298 121.624 456.994 121.779 456.631 121.896C456.269 122.003 455.858 122.056 455.399 122.056C454.941 122.056 454.53 122.003 454.167 121.896C453.805 121.779 453.495 121.624 453.239 121.432C452.994 121.24 452.802 121.016 452.663 120.76C452.535 120.504 452.471 120.232 452.471 119.944C452.471 119.624 452.546 119.336 452.695 119.08C452.845 118.813 453.053 118.589 453.319 118.408C453.586 118.216 453.895 118.067 454.247 117.96C454.61 117.853 454.994 117.8 455.399 117.8C455.805 117.8 456.183 117.853 456.535 117.96C456.898 118.067 457.207 118.216 457.463 118.408C457.73 118.589 457.938 118.813 458.087 119.08C458.247 119.336 458.327 119.624 458.327 119.944ZM461.174 124.392L461.366 124.952C461.974 124.813 462.422 124.573 462.71 124.232C462.998 123.901 463.142 123.411 463.142 122.76V121.32H461.67V123H462.246C462.278 123.341 462.208 123.619 462.038 123.832C461.867 124.056 461.579 124.243 461.174 124.392ZM473.735 117.112C473.735 116.547 473.703 116.045 473.639 115.608C473.575 115.16 473.485 114.765 473.367 114.424C473.25 114.072 473.106 113.763 472.935 113.496C472.765 113.229 472.567 112.984 472.343 112.76C471.981 112.397 471.559 112.115 471.079 111.912C470.599 111.709 470.039 111.608 469.399 111.608C468.802 111.608 468.253 111.709 467.751 111.912C467.261 112.104 466.839 112.376 466.487 112.728C466.135 113.069 465.858 113.475 465.655 113.944C465.463 114.403 465.367 114.899 465.367 115.432C465.367 115.944 465.463 116.413 465.655 116.84C465.847 117.267 466.114 117.635 466.455 117.944C466.797 118.253 467.207 118.493 467.687 118.664C468.167 118.835 468.695 118.92 469.271 118.92C470.05 118.92 470.695 118.744 471.207 118.392C471.719 118.04 472.13 117.619 472.439 117.128C472.45 117.843 472.375 118.504 472.215 119.112C472.066 119.709 471.842 120.227 471.543 120.664C471.255 121.091 470.903 121.427 470.487 121.672C470.071 121.917 469.613 122.04 469.111 122.04C468.61 122.04 468.141 121.944 467.703 121.752C467.266 121.549 466.818 121.245 466.359 120.84L465.623 121.816C466.103 122.211 466.615 122.541 467.159 122.808C467.703 123.064 468.343 123.192 469.079 123.192C469.773 123.192 470.402 123.043 470.967 122.744C471.543 122.445 472.034 122.029 472.439 121.496C472.855 120.952 473.175 120.312 473.399 119.576C473.623 118.829 473.735 118.008 473.735 117.112ZM472.199 115.288C472.199 115.608 472.135 115.923 472.007 116.232C471.879 116.541 471.693 116.813 471.447 117.048C471.213 117.283 470.919 117.475 470.567 117.624C470.226 117.763 469.842 117.832 469.415 117.832C469.01 117.832 468.637 117.773 468.295 117.656C467.954 117.528 467.661 117.357 467.415 117.144C467.181 116.92 466.994 116.659 466.855 116.36C466.727 116.061 466.663 115.731 466.663 115.368C466.663 115.016 466.722 114.68 466.839 114.36C466.967 114.04 467.143 113.763 467.367 113.528C467.602 113.283 467.885 113.091 468.215 112.952C468.557 112.803 468.935 112.728 469.351 112.728C469.767 112.728 470.151 112.797 470.503 112.936C470.855 113.064 471.154 113.245 471.399 113.48C471.655 113.704 471.853 113.971 471.991 114.28C472.13 114.589 472.199 114.925 472.199 115.288ZM475.167 112.664L475.471 113.688L477.583 113.032V123H478.831V111.72H477.903L475.167 112.664ZM482.037 117.256L482.885 117.816C483.216 117.635 483.568 117.485 483.941 117.368C484.325 117.24 484.757 117.176 485.237 117.176C485.653 117.176 486.032 117.235 486.373 117.352C486.714 117.469 487.008 117.635 487.253 117.848C487.498 118.051 487.685 118.296 487.813 118.584C487.952 118.872 488.021 119.192 488.021 119.544C488.021 119.907 487.952 120.243 487.813 120.552C487.685 120.851 487.504 121.112 487.269 121.336C487.034 121.56 486.746 121.736 486.405 121.864C486.074 121.981 485.712 122.04 485.317 122.04C484.741 122.04 484.186 121.907 483.653 121.64C483.13 121.363 482.624 120.984 482.133 120.504L481.301 121.416C481.813 121.928 482.405 122.355 483.077 122.696C483.76 123.027 484.501 123.192 485.301 123.192C485.888 123.192 486.426 123.107 486.917 122.936C487.408 122.755 487.829 122.504 488.181 122.184C488.533 121.853 488.805 121.464 488.997 121.016C489.2 120.557 489.301 120.051 489.301 119.496C489.301 118.963 489.2 118.483 488.997 118.056C488.805 117.629 488.533 117.272 488.181 116.984C487.829 116.685 487.418 116.456 486.949 116.296C486.48 116.136 485.973 116.056 485.429 116.056C484.96 116.056 484.554 116.104 484.213 116.2C483.882 116.285 483.552 116.403 483.221 116.552L483.461 112.968H488.805V111.8H482.357L482.037 117.256ZM490.986 124.392L491.178 124.952C491.786 124.813 492.234 124.573 492.522 124.232C492.81 123.901 492.954 123.411 492.954 122.76V121.32H491.482V123H492.058C492.09 123.341 492.021 123.619 491.85 123.832C491.679 124.056 491.391 124.243 490.986 124.392ZM501.196 111.72L494.86 119.432L495.18 120.344H501.084V123H502.3V120.344H504.044V119.288H502.3V111.72H501.196ZM501.084 119.288H496.38L501.084 113.512V119.288ZM511.93 111.72L505.594 119.432L505.914 120.344H511.818V123H513.034V120.344H514.778V119.288H513.034V111.72H511.93ZM511.818 119.288H507.114L511.818 113.512V119.288ZM526.089 117.384C526.089 116.595 525.977 115.853 525.753 115.16C525.539 114.456 525.225 113.843 524.809 113.32C524.403 112.787 523.907 112.371 523.321 112.072C522.745 111.763 522.099 111.608 521.385 111.608C520.659 111.608 520.003 111.763 519.417 112.072C518.83 112.381 518.329 112.803 517.913 113.336C517.507 113.859 517.193 114.472 516.969 115.176C516.745 115.88 516.633 116.627 516.633 117.416C516.633 118.205 516.739 118.952 516.953 119.656C517.177 120.349 517.491 120.963 517.897 121.496C518.313 122.019 518.809 122.435 519.385 122.744C519.971 123.043 520.627 123.192 521.353 123.192C522.067 123.192 522.718 123.037 523.305 122.728C523.891 122.419 524.387 122.003 524.793 121.48C525.209 120.947 525.529 120.328 525.753 119.624C525.977 118.92 526.089 118.173 526.089 117.384ZM524.777 117.416C524.777 118.035 524.697 118.627 524.537 119.192C524.387 119.747 524.163 120.237 523.865 120.664C523.577 121.08 523.219 121.416 522.793 121.672C522.377 121.917 521.907 122.04 521.385 122.04C520.862 122.04 520.387 121.917 519.961 121.672C519.534 121.416 519.171 121.075 518.873 120.648C518.574 120.221 518.345 119.725 518.185 119.16C518.025 118.595 517.945 118.003 517.945 117.384C517.945 116.765 518.025 116.179 518.185 115.624C518.345 115.059 518.569 114.568 518.857 114.152C519.155 113.725 519.513 113.389 519.929 113.144C520.355 112.888 520.83 112.76 521.353 112.76C521.875 112.76 522.345 112.888 522.761 113.144C523.187 113.4 523.55 113.741 523.849 114.168C524.147 114.595 524.377 115.091 524.537 115.656C524.697 116.211 524.777 116.797 524.777 117.416Z" fill="black"/>
</svg>
