<svg width="280" height="51" viewBox="0 0 280 51" fill="none" xmlns="http://www.w3.org/2000/svg">
<g clip-path="url(#clip0_1464_448)">
<path d="M73.5582 45.9169C74.5163 45.9169 75.3679 45.8105 76.0066 45.5976C76.6453 45.3847 77.1776 45.0653 77.6034 44.6395C78.0292 44.2137 78.2421 43.7879 78.455 43.2557C78.6679 42.7234 78.6679 42.1911 78.6679 41.6589C78.6679 41.0202 78.5615 40.4879 78.3486 40.0621C78.1357 39.5299 77.8163 39.2105 77.3905 38.7847C76.9647 38.4653 76.4324 38.146 75.7937 38.0395C75.155 37.8266 74.4099 37.7202 73.4518 37.7202H68.2357V45.9169H73.5582ZM68.2357 26.0105V34.1008H72.3873C74.197 34.1008 75.4744 33.7815 76.4324 33.1428C77.3905 32.504 77.8163 31.4395 77.8163 30.0557C77.8163 28.5653 77.3905 27.6073 76.5389 26.9686C75.6873 26.3298 74.4099 26.0105 72.7066 26.0105H68.2357ZM72.7066 21.9653C74.5163 21.9653 76.1131 22.1782 77.3905 22.4976C78.6679 22.8169 79.7324 23.3492 80.5841 23.9879C81.4357 24.6266 82.0744 25.3718 82.3937 26.3298C82.8195 27.2879 82.926 28.246 82.926 29.4169C82.926 30.0557 82.8195 30.6944 82.6066 31.3331C82.3937 31.9718 82.0744 32.504 81.755 33.0363C81.3292 33.5686 80.797 33.9944 80.1583 34.4202C79.5195 34.846 78.7744 35.1653 77.9228 35.4847C81.755 36.3363 83.6712 38.4653 83.6712 41.7653C83.6712 42.9363 83.4582 44.0008 83.0324 45.0653C82.6066 46.0234 81.9679 46.9815 81.0099 47.6202C80.1582 48.3653 79.0937 48.8976 77.8163 49.3234C76.5389 49.7492 75.155 49.9621 73.4518 49.9621H62.9131V21.9653H72.7066Z" fill="white"/>
<path d="M104.536 30.1621V49.9621H101.662C101.023 49.9621 100.597 49.6428 100.491 49.1105L100.065 47.5137C99.2131 48.3653 98.3615 49.004 97.4034 49.5363C96.4454 50.0686 95.2744 50.2815 93.8905 50.2815C92.826 50.2815 91.868 50.0686 91.0163 49.7492C90.1647 49.4298 89.526 48.8976 88.8873 48.1524C88.355 47.5137 87.9292 46.6621 87.6099 45.8105C87.2905 44.8524 87.1841 43.8944 87.1841 42.7234V30.1621H91.9744V42.7234C91.9744 43.8944 92.2938 44.8524 92.826 45.4911C93.3583 46.1299 94.2099 46.4492 95.3809 46.4492C96.2325 46.4492 96.9776 46.2363 97.7228 45.9169C98.468 45.5976 99.1067 45.0653 99.7454 44.4266V30.1621H104.536Z" fill="white"/>
<path d="M114.01 21.2197V37.7197H114.861C115.181 37.7197 115.393 37.7197 115.606 37.6133C115.819 37.5068 116.032 37.4004 116.139 37.081L121.035 31.0133C121.248 30.6939 121.461 30.5875 121.674 30.3746C121.887 30.2681 122.206 30.1617 122.632 30.1617H126.997L120.822 37.5068C120.397 38.0391 119.864 38.5713 119.439 38.8907C119.758 39.1036 119.971 39.3165 120.184 39.5294C120.397 39.7423 120.61 40.0617 120.822 40.381L127.422 49.9617H123.058C122.632 49.9617 122.313 49.8552 122.1 49.7488C121.781 49.6423 121.568 49.4294 121.461 49.1101L116.352 41.552C116.139 41.2326 116.032 41.0197 115.819 41.0197C115.606 40.9133 115.287 40.9133 114.968 40.9133H113.903V49.9617H109.113V21.2197H114.01Z" fill="white"/>
<path d="M134.874 30.1617V49.9617H130.084V30.1617H134.874ZM135.513 24.3068C135.513 24.7326 135.407 25.1584 135.3 25.4778C135.087 25.7971 134.874 26.1165 134.661 26.4359C134.342 26.7552 134.023 26.9681 133.703 27.0746C133.278 27.2875 132.958 27.2875 132.532 27.2875C132.107 27.2875 131.681 27.181 131.361 27.0746C131.042 26.8617 130.723 26.6488 130.403 26.4359C130.084 26.1165 129.871 25.7971 129.765 25.4778C129.552 25.1584 129.552 24.7326 129.552 24.3068C129.552 23.881 129.658 23.4552 129.765 23.1358C129.978 22.71 130.19 22.3907 130.403 22.1778C130.723 21.8584 131.042 21.6455 131.361 21.5391C131.681 21.3262 132.107 21.3262 132.532 21.3262C132.958 21.3262 133.384 21.4326 133.703 21.5391C134.129 21.752 134.449 21.9649 134.661 22.1778C134.981 22.4971 135.194 22.8165 135.3 23.1358C135.513 23.4552 135.513 23.881 135.513 24.3068Z" fill="white"/>
<path d="M146.371 50.2813C144.668 50.2813 143.284 49.7491 142.432 48.791C141.474 47.833 141.049 46.4491 141.049 44.7459V33.6749H139.026C138.813 33.6749 138.6 33.5684 138.387 33.462C138.174 33.2491 138.068 33.0362 138.068 32.7168V30.8007L141.261 30.2684L142.219 24.8394C142.326 24.6265 142.432 24.4136 142.539 24.2007C142.752 24.0942 142.965 23.9878 143.284 23.9878H145.732V30.2684H151.055V33.6749H145.732V44.4265C145.732 45.0652 145.839 45.491 146.158 45.9168C146.478 46.2362 146.903 46.4491 147.436 46.4491C147.755 46.4491 147.968 46.4491 148.181 46.3426C148.394 46.2362 148.607 46.2362 148.713 46.1297C148.819 46.0233 149.032 46.0233 149.139 45.9168C149.245 45.8104 149.352 45.8104 149.458 45.8104C149.565 45.8104 149.671 45.8104 149.778 45.9168C149.884 46.0233 149.99 46.1297 150.097 46.2362L151.481 48.5781C150.736 49.1104 149.99 49.6426 149.032 49.8555C148.287 50.0684 147.329 50.2813 146.371 50.2813Z" fill="white"/>
<path d="M170.962 39.5298L167.129 29.3105C166.81 28.5653 166.491 27.5008 166.171 26.3298C166.065 26.9686 165.852 27.5008 165.745 28.0331C165.532 28.5653 165.426 28.9911 165.32 29.4169L161.487 39.5298H170.962ZM179.584 49.9621H176.071C175.645 49.9621 175.326 49.8557 175.113 49.6427C174.9 49.4298 174.687 49.2169 174.581 48.8976L172.239 42.7234H160.21L157.868 48.8976C157.762 49.1105 157.549 49.4298 157.336 49.6427C157.123 49.8557 156.803 49.9621 156.378 49.9621H152.865L163.936 22.0718H168.513L179.584 49.9621Z" fill="white"/>
<path d="M193.848 33.781C193.742 33.9939 193.636 34.1004 193.529 34.2068C193.423 34.3133 193.21 34.3133 192.997 34.3133C192.784 34.3133 192.571 34.2068 192.252 34.1004C192.039 33.9939 191.719 33.781 191.294 33.6746C190.974 33.4617 190.548 33.3552 190.016 33.2487C189.59 33.1423 188.952 33.0358 188.313 33.0358C187.781 33.0358 187.355 33.1423 186.929 33.2487C186.503 33.3552 186.184 33.5681 185.865 33.781C185.545 33.9939 185.332 34.3133 185.226 34.5262C185.119 34.8455 185.013 35.1649 185.013 35.4842C185.013 35.91 185.119 36.3358 185.439 36.6552C185.758 36.9746 186.077 37.1875 186.61 37.5068C187.036 37.7197 187.568 37.9326 188.207 38.1455C188.845 38.3584 189.377 38.5713 190.016 38.6778C190.655 38.8907 191.294 39.1036 191.826 39.4229C192.465 39.7423 192.997 40.0617 193.423 40.381C193.848 40.8068 194.274 41.2326 194.594 41.7649C194.913 42.2971 195.019 43.0423 195.019 43.7875C195.019 44.7455 194.806 45.5971 194.487 46.3423C194.168 47.0875 193.636 47.8326 192.997 48.3649C192.358 48.8971 191.507 49.4294 190.548 49.7488C189.59 50.0681 188.526 50.281 187.248 50.281C186.61 50.281 185.865 50.1746 185.226 50.0681C184.587 49.9617 183.948 49.7487 183.416 49.5358C182.884 49.3229 182.352 49.11 181.819 48.7907C181.287 48.4713 180.861 48.152 180.542 47.8326L181.5 46.2358C181.607 46.0229 181.713 45.9165 181.926 45.81C182.139 45.7036 182.352 45.5971 182.565 45.5971C182.884 45.5971 183.097 45.7036 183.416 45.81C183.629 46.0229 183.948 46.1294 184.374 46.3423C184.694 46.5552 185.119 46.7681 185.652 46.8746C186.184 47.0875 186.823 47.0875 187.568 47.0875C188.206 47.0875 188.739 46.981 189.165 46.8746C189.59 46.7681 190.016 46.5552 190.336 46.2358C190.655 46.0229 190.868 45.7036 190.974 45.3842C191.081 45.0649 191.187 44.7455 191.187 44.3197C191.187 43.7875 191.081 43.3617 190.761 43.0423C190.442 42.7229 190.123 42.4036 189.59 42.1907C189.165 41.9778 188.632 41.7649 187.994 41.552C187.355 41.3391 186.823 41.1262 186.184 41.0197C185.545 40.8068 184.906 40.5939 184.374 40.2746C183.736 39.9552 183.203 39.6358 182.777 39.21C182.352 38.7842 181.926 38.252 181.607 37.7197C181.287 37.081 181.181 36.3358 181.181 35.4842C181.181 34.7391 181.287 33.9939 181.607 33.2487C181.926 32.5036 182.352 31.8649 182.99 31.3326C183.629 30.8004 184.374 30.3746 185.226 30.0552C186.077 29.7358 187.142 29.6294 188.313 29.6294C189.59 29.6294 190.868 29.8423 191.932 30.2681C192.997 30.6939 193.955 31.2262 194.7 31.9713L193.848 33.781Z" fill="white"/>
<path d="M209.497 41.3395C208.006 41.3395 206.729 41.5525 205.771 41.6589C204.706 41.8718 203.961 42.0847 203.323 42.4041C202.684 42.7234 202.258 43.0428 201.939 43.4686C201.619 43.8944 201.513 44.3202 201.513 44.746C201.513 45.1718 201.619 45.5976 201.726 45.917C201.832 46.2363 202.045 46.5557 202.365 46.7686C202.577 46.9815 202.897 47.0879 203.323 47.1944C203.642 47.3008 204.068 47.3008 204.494 47.3008C205.558 47.3008 206.516 47.0879 207.261 46.6621C208.006 46.2363 208.752 45.7041 209.497 44.8525V41.3395ZM198.426 32.9299C200.661 30.9073 203.323 29.8428 206.41 29.8428C207.581 29.8428 208.539 30.0557 209.39 30.375C210.242 30.6944 210.987 31.2266 211.626 31.9718C212.265 32.6105 212.69 33.4621 213.01 34.3137C213.329 35.2718 213.436 36.2299 213.436 37.4008V49.9621H211.626C211.2 49.9621 210.881 49.8557 210.668 49.7492C210.455 49.6428 210.242 49.4299 210.136 49.0041L209.71 47.4073C209.177 47.8331 208.752 48.2589 208.219 48.5783C207.687 48.8976 207.261 49.217 206.729 49.4299C206.197 49.6428 205.665 49.8557 205.026 49.9621C204.387 50.0686 203.748 50.175 203.003 50.175C202.152 50.175 201.407 50.0686 200.768 49.8557C200.129 49.6428 199.49 49.3234 198.958 48.8976C198.426 48.4718 198.106 47.9395 197.787 47.1944C197.468 46.5557 197.361 45.8105 197.361 44.8525C197.361 44.1073 197.574 43.3621 198 42.617C198.426 41.8718 199.065 41.2331 200.023 40.7008C200.981 40.1686 202.152 39.6363 203.748 39.317C205.239 38.8912 207.155 38.6783 209.39 38.6783V37.4008C209.39 36.017 209.071 34.9525 208.432 34.2073C207.794 33.4621 206.942 33.1428 205.771 33.1428C204.919 33.1428 204.281 33.2492 203.748 33.4621C203.216 33.675 202.684 33.8879 202.365 34.1008C201.939 34.3137 201.619 34.5266 201.3 34.7395C200.981 34.9525 200.661 35.0589 200.342 35.0589C200.023 35.0589 199.81 34.9525 199.597 34.846C199.384 34.7395 199.277 34.5266 199.065 34.3137L198.426 32.9299Z" fill="white"/>
<path d="M218.332 49.9621V30.2686H220.887C221.419 30.2686 221.845 30.4815 221.951 31.0137L222.271 32.717C222.59 32.2912 223.016 31.9718 223.442 31.546C223.868 31.2266 224.293 30.9073 224.719 30.6944C225.145 30.4815 225.677 30.2686 226.103 30.0557C226.635 29.9492 227.168 29.8428 227.806 29.8428C228.445 29.8428 228.977 29.9492 229.509 30.1621C230.042 30.375 230.468 30.5879 230.893 30.9073C231.319 31.2266 231.638 31.6525 231.958 32.0783C232.277 32.5041 232.49 33.1428 232.703 33.675C233.022 33.0363 233.342 32.3976 233.874 31.8654C234.3 31.3331 234.832 31.0137 235.364 30.6944C235.897 30.375 236.535 30.1621 237.174 30.0557C237.813 29.9492 238.451 29.8428 239.09 29.8428C240.155 29.8428 241.113 30.0557 241.964 30.375C242.816 30.6944 243.455 31.2266 244.093 31.8654C244.626 32.5041 245.051 33.2492 245.371 34.2073C245.69 35.1654 245.797 36.2299 245.797 37.4008V49.9621H241.645V37.4008C241.645 36.017 241.326 34.9525 240.793 34.2073C240.155 33.4621 239.303 33.1428 238.132 33.1428C237.6 33.1428 237.068 33.2492 236.642 33.4621C236.216 33.675 235.79 33.8879 235.471 34.2073C235.151 34.5266 234.832 34.9524 234.619 35.4847C234.406 36.017 234.3 36.6557 234.3 37.2944V49.8557H229.935V37.4008C229.935 35.9105 229.616 34.846 229.084 34.2073C228.551 33.5686 227.7 33.1428 226.529 33.1428C225.784 33.1428 225.038 33.3557 224.4 33.7815C223.761 34.2073 223.122 34.7395 222.59 35.3783V49.9621H218.332Z" fill="white"/>
<path d="M274.645 15.6846C274.645 16.1104 274.219 16.5362 273.794 16.5362C273.368 16.5362 272.942 16.1104 272.942 15.6846C272.942 15.2588 273.368 14.833 273.794 14.833C274.326 14.833 274.645 15.1524 274.645 15.6846Z" fill="white"/>
<path d="M275.177 33.3555C275.177 32.9297 274.752 32.5039 274.326 32.5039C273.9 32.5039 273.474 32.9297 273.474 33.3555C273.474 33.7813 273.9 34.2071 274.326 34.2071C274.752 34.2071 275.177 33.7813 275.177 33.3555Z" fill="white"/>
<path d="M275.497 24.6265C275.497 24.2007 275.071 23.7749 274.645 23.7749C274.219 23.7749 273.793 24.2007 273.793 24.6265C273.793 25.0523 274.219 25.4781 274.645 25.4781C275.071 25.4781 275.497 25.1588 275.497 24.6265Z" fill="white"/>
<path d="M276.668 17.2812L275.284 18.3458C276.561 20.1554 277.306 22.2845 277.306 24.7329C277.306 27.1813 276.455 29.4167 275.177 31.2264L276.561 32.2909C278.158 30.1619 279.116 27.6071 279.116 24.7329C279.01 21.9651 278.158 19.4103 276.668 17.2812Z" fill="white"/>
<path d="M266.555 35.4843C266.555 35.4843 266.448 35.4843 266.555 35.4843V33.6746C270.707 33.6746 274.219 30.8004 275.178 27.0746H273.368C272.41 29.9488 269.748 31.9714 266.555 31.9714C262.616 31.9714 259.316 28.7778 259.316 24.7327C259.316 20.6875 262.51 17.494 266.555 17.494C269.748 17.494 272.41 19.5165 273.368 22.3907H275.178C274.113 18.5585 270.707 15.7907 266.555 15.7907V13.9811C268.152 13.9811 269.642 14.3004 270.919 14.9391L271.665 13.3423C270.068 12.5972 268.365 12.2778 266.555 12.2778C259.636 12.2778 253.994 17.9198 253.994 24.8391C253.994 31.7585 259.636 37.4004 266.555 37.4004C268.897 37.4004 271.132 36.7617 273.048 35.5907L272.09 34.1004C270.494 34.8456 268.578 35.4843 266.555 35.4843Z" fill="white"/>
<path d="M26.0805 7.7006C26.0805 7.7006 36.2998 0.355443 46.0934 9.72318C53.4385 16.749 49.3934 34.7393 39.4934 34.7393C39.4934 34.7393 37.5772 35.1651 32.7869 32.9296C27.9966 30.6942 22.4611 29.2038 15.5418 33.4619C8.72886 37.8264 -1.06468 33.0361 0.106284 15.578C0.638542 7.2748 7.13209 0.78125 7.13209 0.78125H24.9095C24.9095 0.78125 14.6902 10.149 14.6902 17.92C14.6902 25.6909 20.6514 28.778 24.9095 28.778C29.1676 28.778 35.6611 25.5845 35.6611 17.92C35.6611 10.2554 28.7418 7.80706 26.0805 7.7006Z" fill="white"/>
<path d="M0 32.3975V49.962H49.9258V31.8652C49.9258 31.8652 47.9032 38.7846 38.6419 38.7846C31.0839 38.7846 29.8064 34.1007 25.0161 34.1007C20.2258 34.1007 19.0548 38.4652 9.58064 38.4652C2.66129 38.4652 0 32.3975 0 32.3975Z" fill="white"/>
</g>
<defs>
<clipPath id="clip0_1464_448">
<rect width="279.01" height="49.5" fill="white" transform="translate(0 0.78125)"/>
</clipPath>
</defs>
</svg>
