<svg width="50" height="48" viewBox="0 0 50 48" fill="none" xmlns="http://www.w3.org/2000/svg">
<path d="M24.7741 45.5C37.0162 45.5 46.9668 35.86 46.9668 24C46.9668 12.14 37.0162 2.5 24.7741 2.5C12.5321 2.5 2.5815 12.14 2.5815 24C2.5815 35.86 12.5321 45.5 24.7741 45.5Z" fill="white"/>
<path d="M22.1723 32.5601C22.5646 32.5601 22.9568 32.4201 23.2665 32.1201L30.5539 25.0601C31.1526 24.4801 31.1526 23.5201 30.5539 22.9401L23.2665 15.8801C22.6678 15.3001 21.6769 15.3001 21.0782 15.8801C20.4795 16.4601 20.4795 17.4201 21.0782 18.0001L27.2715 24.0001L21.0782 30.0001C20.4795 30.5801 20.4795 31.5401 21.0782 32.1201C21.3672 32.4201 21.7594 32.5601 22.1723 32.5601Z" fill="#292D32"/>
</svg>
